<svg width="289" height="240" viewBox="0 0 289 240" fill="none" xmlns="http://www.w3.org/2000/svg">
<path d="M42.3176 217.683C98.7575 247.165 190.224 247.165 246.65 217.683C303.077 188.202 303.09 140.42 246.65 110.939C190.21 81.4572 98.7443 81.4638 42.3176 110.939C-14.1092 140.414 -14.1025 188.208 42.3176 217.683Z" fill="#FADEDF"/>
<path d="M25.578 170.686H27.9551C29.0446 167.048 29.7589 163.308 30.0866 159.524C30.6045 152.519 27.2114 141.795 20.9964 138.203C14.7814 134.611 11.4149 139.053 13.4998 142.851C15.5848 146.649 22.6166 157.452 22.7095 166.748L25.578 170.686Z" fill="#FF0000"/>
<path d="M25.007 170.686H25.671C26.3198 166.098 26.3198 161.442 25.671 156.854C24.5954 147.764 21.6074 143.541 18.8318 140.606C18.7711 140.542 18.6873 140.505 18.5989 140.502C18.5105 140.5 18.4247 140.532 18.3604 140.593C18.2961 140.654 18.2586 140.738 18.2561 140.826C18.2536 140.914 18.2864 141 18.3471 141.065C21.0496 143.913 23.9579 148.03 24.9871 156.927C25.6449 161.489 25.6516 166.122 25.007 170.686Z" fill="white"/>
<path d="M25.7706 170.686C24.5488 164.922 18.9978 158.07 13.7588 156.888C7.68324 155.56 4.72844 158.767 5.59828 161.536C6.46812 164.305 11.2688 165.593 15.9301 167.764C17.4997 168.491 18.9344 169.478 20.1731 170.686H25.7706Z" fill="#FF0000"/>
<path d="M23.5595 170.686H24.27C21.7003 164.225 15.8571 159.617 11.0763 159.192C11.0331 159.187 10.9893 159.191 10.9477 159.204C10.906 159.217 10.8673 159.237 10.8339 159.265C10.8005 159.293 10.773 159.327 10.753 159.366C10.7331 159.405 10.7211 159.447 10.7178 159.491C10.7122 159.534 10.7157 159.578 10.728 159.62C10.7402 159.662 10.761 159.701 10.7891 159.735C10.8171 159.769 10.8518 159.796 10.8909 159.816C10.9301 159.835 10.9728 159.847 11.0166 159.849C15.5318 160.254 21.0496 164.583 23.5595 170.686Z" fill="white"/>
<path d="M240.117 109.936L245.09 112.546L245.508 109.432C243.045 102.486 245.07 94.6112 247.733 91.331C250.395 88.0509 249.884 85.6406 248.921 84.5649C247.958 83.4892 244.306 82.6725 240.694 86.8955C237.082 91.1186 236.252 96.2446 236.856 101.417C237.241 104.651 238.941 107.971 240.117 109.936Z" fill="#FF0000"/>
<path opacity="0.2" d="M240.117 109.936L245.09 112.546L245.508 109.432C243.045 102.486 245.07 94.6112 247.733 91.331C250.395 88.0509 249.884 85.6406 248.921 84.5649C247.958 83.4892 244.306 82.6725 240.694 86.8955C237.082 91.1186 236.252 96.2446 236.856 101.417C237.241 104.651 238.941 107.971 240.117 109.936Z" fill="black"/>
<path d="M242.168 111.012L243.151 111.53C243.141 111.511 243.13 111.493 243.118 111.477C241.71 109.803 239.891 101.61 240.654 96.8089C241.597 90.8794 244.638 87.0083 247.241 85.3682C247.273 85.3486 247.301 85.3228 247.322 85.2923C247.344 85.2618 247.359 85.2272 247.367 85.1907C247.375 85.1541 247.376 85.1163 247.369 85.0795C247.362 85.0427 247.348 85.0076 247.327 84.9765C247.285 84.913 247.22 84.8685 247.146 84.8523C247.071 84.8362 246.994 84.8498 246.929 84.8901C244.273 86.5966 241.059 90.6005 240.083 96.7226C239.379 101.191 240.787 108.27 242.168 111.012Z" fill="white"/>
<path d="M245.189 98.0841C246.644 101.65 246.637 103.396 244.266 103.761C242.128 104.08 239.532 106.676 241.942 110.893L256.046 118.29C256.081 117.501 256.276 116.728 256.618 116.017C256.961 115.306 257.444 114.672 258.038 114.153C260.355 111.836 262.493 110.089 262.161 107.513C261.829 104.937 259.592 102.453 259.22 100.209C258.848 97.9646 259.99 96.683 262.427 94.1665C264.864 91.6499 267.075 87.7456 263.821 85.9661C260.568 84.1866 256.843 87.2343 255.289 89.2861C253.735 91.3378 252.314 92.2409 249.253 92.0682C246.192 91.8956 243.735 94.5184 245.189 98.0841Z" fill="#FF0000"/>
<path d="M249.18 114.691C249.114 103.748 256.955 90.9326 261.318 88.343C261.382 88.3019 261.429 88.2377 261.447 88.1636C261.466 88.0895 261.455 88.0112 261.418 87.9446C261.378 87.8807 261.315 87.8347 261.242 87.8161C261.169 87.7976 261.091 87.8079 261.026 87.845C256.604 90.501 248.695 103.323 248.609 114.405L249.18 114.691Z" fill="white"/>
<path d="M251.278 103.316C251.218 103.33 251.155 103.323 251.1 103.296C251.045 103.27 251 103.225 250.973 103.17C249.706 100.807 248.64 98.3413 247.786 95.7997C247.774 95.7639 247.77 95.7263 247.773 95.6889C247.776 95.6515 247.787 95.6152 247.804 95.5819C247.822 95.5486 247.845 95.519 247.874 95.4949C247.903 95.4707 247.936 95.4524 247.972 95.4411C248.007 95.4298 248.045 95.4256 248.082 95.4288C248.12 95.432 248.156 95.4425 248.189 95.4598C248.223 95.4771 248.252 95.5007 248.276 95.5294C248.3 95.5581 248.319 95.5913 248.33 95.627C249.176 98.1334 250.229 100.565 251.477 102.898C251.513 102.966 251.52 103.045 251.498 103.118C251.475 103.191 251.425 103.253 251.358 103.29L251.278 103.316Z" fill="white"/>
<path d="M249.393 110.023C249.338 110.033 249.282 110.028 249.23 110.008C249.179 109.988 249.134 109.954 249.1 109.91C249.057 109.846 249.04 109.768 249.053 109.692C249.067 109.617 249.11 109.549 249.173 109.505C252.033 107.503 255.502 106.564 258.981 106.849C259.056 106.859 259.125 106.898 259.172 106.958C259.219 107.019 259.239 107.095 259.23 107.171C259.22 107.247 259.181 107.315 259.12 107.362C259.06 107.409 258.983 107.43 258.908 107.42C255.577 107.166 252.259 108.059 249.505 109.95C249.473 109.981 249.435 110.006 249.393 110.023Z" fill="white"/>
<path d="M20.5915 167.863L93.0604 209.695C93.9514 210.147 94.9364 210.383 95.9355 210.383C96.9346 210.383 97.9197 210.147 98.8107 209.695L257.593 118.063C259.18 117.147 259.18 115.66 257.593 114.743L185.124 72.9113C184.234 72.4561 183.249 72.2188 182.249 72.2188C181.249 72.2188 180.264 72.4561 179.374 72.9113L20.5915 164.543C19.0045 165.46 19.0045 166.947 20.5915 167.863Z" fill="black"/>
<path d="M59.7608 187.285C60.9963 187.909 62.3609 188.234 63.7448 188.234C65.1286 188.234 66.4932 187.909 67.7288 187.285C69.9399 186.011 69.9399 183.965 67.7288 182.671C66.4941 182.044 65.1292 181.718 63.7448 181.718C62.3603 181.718 60.9954 182.044 59.7608 182.671C57.5496 183.965 57.5496 186.024 59.7608 187.285Z" fill="#263238"/>
<path d="M94.4216 209.695L21.9526 167.863C20.5317 167.04 20.3856 165.765 21.5078 164.849C20.799 165.409 20.2162 166.113 19.7975 166.914C19.3788 167.715 19.1335 168.595 19.0775 169.497V172.199C19.132 173.197 19.4207 174.167 19.9202 175.033C20.4197 175.898 21.116 176.633 21.9526 177.179L94.4216 219.011C95.3077 219.474 96.2974 219.703 97.2967 219.675V210.386C96.2951 210.405 95.3052 210.167 94.4216 209.695Z" fill="#263238"/>
<path d="M257.586 127.372C258.425 126.828 259.123 126.093 259.624 125.228C260.125 124.362 260.414 123.391 260.468 122.392V119.69C260.414 118.787 260.169 117.905 259.749 117.104C259.329 116.303 258.743 115.6 258.031 115.042C259.16 115.958 259.014 117.233 257.593 118.05L98.8107 209.695C97.924 210.156 96.9347 210.385 95.9355 210.359V219.702C96.9347 219.727 97.924 219.499 98.8107 219.038L257.586 127.372Z" fill="#263238"/>
<path d="M104.999 201.03L35.6377 160.964C34.6815 160.413 34.6815 159.517 35.6377 158.972L169.713 81.5433C170.247 81.2715 170.839 81.1299 171.439 81.1299C172.039 81.1299 172.63 81.2715 173.165 81.5433L242.553 121.602C243.503 122.154 243.503 123.043 242.553 123.594L108.425 201.03C107.894 201.298 107.307 201.437 106.712 201.437C106.117 201.437 105.531 201.298 104.999 201.03Z" fill="white"/>
<path d="M77.0513 178.66L85.1455 173.985L82.4496 172.432L74.3555 177.1L77.0513 178.66Z" fill="#FF0000"/>
<path d="M174.155 122.598L182.249 117.924L179.546 116.37L171.459 121.045L174.155 122.598Z" fill="#FF0000"/>
<path d="M190.336 113.256L198.43 108.581L195.735 107.027L187.641 111.695L190.336 113.256Z" fill="#FF0000"/>
<path d="M216.312 96.8881C216.626 97.0453 216.973 97.1271 217.325 97.1271C217.676 97.1271 218.023 97.0453 218.337 96.8881C218.459 96.8464 218.565 96.7677 218.64 96.6629C218.715 96.5581 218.755 96.4325 218.755 96.3037C218.755 96.1749 218.715 96.0494 218.64 95.9446C218.565 95.8398 218.459 95.7611 218.337 95.7194C218.024 95.5592 217.677 95.4756 217.325 95.4756C216.973 95.4756 216.626 95.5592 216.312 95.7194C216.19 95.7611 216.084 95.8398 216.009 95.9446C215.935 96.0494 215.894 96.1749 215.894 96.3037C215.894 96.4325 215.935 96.5581 216.009 96.6629C216.084 96.7677 216.19 96.8464 216.312 96.8881Z" fill="#263238"/>
<path d="M219.546 106.058C220.172 106.376 220.865 106.541 221.568 106.541C222.27 106.541 222.963 106.376 223.59 106.058C224.705 105.394 224.705 104.365 223.59 103.721C222.963 103.404 222.27 103.238 221.568 103.238C220.865 103.238 220.172 103.404 219.546 103.721C218.43 104.365 218.43 105.414 219.546 106.058Z" fill="#263238"/>
<path d="M216.691 101.994C217.434 101.563 217.394 100.846 216.604 100.387L203.324 92.705C202.897 92.4759 202.421 92.3516 201.936 92.3424C201.451 92.3331 200.971 92.4392 200.535 92.6519C199.792 93.0835 199.832 93.8006 200.622 94.2588L213.942 101.941C214.364 102.163 214.833 102.284 215.31 102.293C215.787 102.302 216.26 102.2 216.691 101.994Z" fill="#263238"/>
<path d="M88.4455 173.202C95.1585 177.067 110.895 174.258 123.598 166.921L158.491 146.782C171.193 139.445 176.04 130.374 169.314 126.516C162.588 122.659 146.838 125.481 134.122 132.811L99.2952 152.924C86.5996 160.254 81.7391 169.358 88.4455 173.202Z" fill="#FADEDF"/>
<path d="M190.038 4.36697H190.071L195.814 1.04697H195.861C199.48 -0.785671 204.314 -0.281027 209.519 3.10537C219.984 9.83833 227.972 25.3759 227.368 37.7994C227.062 43.9945 224.712 48.2441 221.08 50.1166H221.046L215.296 53.4366H215.256C211.637 55.2758 206.797 54.7646 201.585 51.3848C191.127 44.6452 183.139 29.1143 183.743 16.6908C184.062 10.4891 186.445 6.23945 190.038 4.36697Z" fill="#263238"/>
<path d="M215.588 53.2641L221.066 50.0769H221.106C224.705 48.1978 227.082 43.9482 227.388 37.7597C227.653 32.2219 226.212 26.0666 223.609 20.3496L217.859 23.6696C220.469 29.3866 221.91 35.5419 221.637 41.0863C221.352 47.1287 219.068 51.3319 215.588 53.2641Z" fill="#263238"/>
<path d="M201.611 51.3781C191.153 44.6385 183.165 29.1075 183.769 16.6841C184.374 4.26067 193.358 -0.354126 203.796 6.37883C214.234 13.1118 222.248 28.6494 221.644 41.0728C221.04 53.4963 212.069 58.1111 201.611 51.3781Z" fill="black"/>
<path d="M210.376 50.5019C216.544 50.8007 217.547 43.8619 217.68 40.8739C218.211 29.9179 210.867 15.6419 201.644 9.69907C199.679 8.32251 197.392 7.4763 195.004 7.24226C188.842 6.94346 187.84 13.8823 187.7 16.8703C187.169 27.8263 194.506 42.1023 203.736 48.0783C205.701 49.4548 207.988 50.301 210.376 50.5351V50.5019Z" fill="#FAFAFA"/>
<path d="M201.498 30.9336C201.571 30.9338 201.643 30.9203 201.711 30.8938C201.849 30.8488 201.969 30.7594 202.052 30.6394C202.135 30.5193 202.176 30.3754 202.169 30.2298V14.4067C202.169 14.2306 202.099 14.0617 201.974 13.9372C201.85 13.8126 201.681 13.7427 201.505 13.7427C201.329 13.7427 201.16 13.8126 201.035 13.9372C200.911 14.0617 200.841 14.2306 200.841 14.4067V28.3042L193.451 18.809C193.341 18.6681 193.181 18.5764 193.004 18.554C192.827 18.5315 192.649 18.5803 192.508 18.6895C192.367 18.7987 192.275 18.9593 192.253 19.1362C192.23 19.313 192.279 19.4915 192.388 19.6324L200.987 30.6747C201.047 30.7533 201.125 30.8173 201.213 30.8622C201.302 30.907 201.399 30.9314 201.498 30.9336Z" fill="#263238"/>
<path d="M205.31 42.6398C205.34 42.6459 205.372 42.6459 205.403 42.6398C205.473 42.6182 205.532 42.5703 205.568 42.5059C205.604 42.4416 205.614 42.3658 205.595 42.2945L201.87 29.7516C201.849 29.6803 201.8 29.6203 201.735 29.5848C201.67 29.5493 201.593 29.5412 201.521 29.5623C201.45 29.5835 201.39 29.6321 201.355 29.6974C201.319 29.7628 201.311 29.8396 201.332 29.9109L205.051 42.4539C205.07 42.5076 205.105 42.5543 205.151 42.5875C205.197 42.6208 205.253 42.639 205.31 42.6398Z" fill="#FF0000"/>
<path d="M201.711 27.0891C200.476 26.2989 199.42 26.8434 199.354 28.3042C199.358 29.101 199.55 29.8856 199.914 30.594C200.279 31.3025 200.806 31.9148 201.452 32.3812C202.68 33.178 203.736 32.6335 203.809 31.1727C203.803 30.3753 203.611 29.5903 203.246 28.8811C202.882 28.1718 202.356 27.558 201.711 27.0891Z" fill="#FF0000"/>
<path d="M93.2395 169.318L101.327 164.643L98.6312 163.089L90.5437 167.757L93.2395 169.318Z" fill="#FF0000"/>
<path d="M109.421 159.975L117.515 155.3L114.813 153.747L106.725 158.414L109.421 159.975Z" fill="#FF0000"/>
<path d="M106.095 158.069C106.095 161.974 103.359 166.701 99.9791 168.693C98.1797 169.736 96.5595 169.769 95.444 168.985C94.9942 168.632 94.6249 168.187 94.3604 167.68C94.096 167.173 93.9425 166.615 93.9102 166.044C94.1373 165.938 94.3589 165.82 94.5742 165.692C97.9539 163.747 100.69 158.999 100.69 155.068C100.693 154.777 100.675 154.487 100.636 154.198C101.143 153.93 101.7 153.771 102.271 153.729C102.843 153.688 103.417 153.767 103.956 153.959C105.284 154.517 106.095 155.958 106.095 158.069Z" fill="#263238"/>
<path d="M106.646 150.048L106.533 149.982C104.833 149.079 102.549 149.244 99.9792 150.719C94.7668 153.726 90.5371 161.044 90.5371 167.066C90.5371 170.094 91.6062 172.212 93.3326 173.195C95.059 174.178 97.3896 174.012 99.9726 172.531C105.185 169.523 109.408 162.199 109.408 156.177C109.415 153.149 108.366 151.031 106.646 150.048ZM100.006 168.68C98.1997 169.722 96.5795 169.755 95.464 168.965C94.4813 168.301 93.8837 166.973 93.8837 165.147C93.8837 161.25 96.626 156.515 100.006 154.523C101.546 153.634 102.947 153.481 103.99 153.939C105.278 154.49 106.088 155.931 106.088 158.056C106.095 161.987 103.359 166.734 99.9792 168.693L100.006 168.68Z" fill="#263238"/>
<path d="M104.302 154.119L104.229 154.079C103.127 153.488 101.632 153.601 99.9791 154.55C96.5994 156.502 93.8571 161.25 93.8571 165.174C93.8571 167.166 94.5211 168.494 95.6698 169.158C96.8185 169.822 98.3258 169.689 99.9791 168.72C103.359 166.768 106.095 162.02 106.095 158.096C106.095 156.13 105.411 154.749 104.302 154.119ZM99.9791 167.299C98.5316 168.136 97.2302 168.162 96.3271 167.525C95.5436 166.974 95.0589 165.918 95.0589 164.457C95.1519 162.75 95.6459 161.089 96.5008 159.609C97.3556 158.129 98.5473 156.871 99.9791 155.938C100.444 155.613 100.979 155.401 101.54 155.32C102.102 155.238 102.674 155.288 103.213 155.466C104.249 155.911 104.899 157.067 104.899 158.786C104.807 160.492 104.313 162.152 103.458 163.632C102.603 165.111 101.411 166.367 99.9791 167.299Z" fill="#FF0000"/>
<path d="M125.603 150.626L133.697 145.958L131.001 144.397L122.907 149.072L125.603 150.626Z" fill="#FF0000"/>
<path d="M141.791 141.284L149.879 136.616L147.183 135.055L139.089 139.73L141.791 141.284Z" fill="#FF0000"/>
<path d="M157.973 131.941L166.06 127.273L163.365 125.712L155.27 130.387L157.973 131.941Z" fill="#FF0000"/>
<path d="M117.701 88.4955C117.786 88.3825 117.904 88.2994 118.039 88.2583C118.174 88.2172 118.319 88.2201 118.452 88.2668C118.585 88.3134 118.7 88.4013 118.78 88.5176C118.86 88.634 118.901 88.7728 118.897 88.9138C118.948 89.2918 118.91 89.6767 118.784 90.0368C118.658 90.397 118.449 90.7221 118.173 90.9855C117.642 91.4437 117.104 91.2578 116.978 90.5672C116.926 90.1893 116.965 89.8045 117.091 89.4445C117.217 89.0844 117.426 88.7592 117.701 88.4955Z" fill="#FF0000"/>
<path d="M123.93 91.4302L118.518 88.3027L117.329 91.1646L122.761 94.2987L123.93 91.4302Z" fill="#FF0000"/>
<path d="M123.1 91.6094C123.631 91.1579 124.162 91.3438 124.295 92.0344C124.344 92.4117 124.303 92.7953 124.176 93.1541C124.049 93.5129 123.84 93.8367 123.564 94.0994C123.033 94.5576 122.495 94.3717 122.369 93.6811C122.321 93.3027 122.362 92.9183 122.489 92.5585C122.615 92.1988 122.825 91.8737 123.1 91.6094Z" fill="#FF0000"/>
<path d="M164.693 117.798C164.693 117.93 164.693 118.05 164.693 118.183C164.693 118.448 164.693 118.721 164.693 118.993C163.617 118.535 162.216 118.687 160.675 119.577C157.296 121.529 154.553 126.277 154.553 130.201C154.553 132.02 155.151 133.335 156.134 134.019C155.858 134.215 155.572 134.397 155.277 134.564L154.965 134.723L154.029 138.249L148.611 135.228C146.897 134.238 145.842 132.127 145.842 129.112C145.842 123.09 150.065 115.772 155.277 112.758C157.853 111.27 160.184 111.118 161.917 112.094L167.229 115.069L167.342 115.135L164.693 117.798Z" fill="black"/>
<path d="M167.335 115.075L167.222 115.009C165.523 114.106 163.238 114.272 160.669 115.746C155.456 118.754 151.227 126.071 151.227 132.094C151.227 135.121 152.296 137.24 154.022 138.222C155.749 139.205 158.079 139.039 160.662 137.558C165.875 134.55 170.098 127.226 170.098 121.204C170.118 118.176 169.048 116.058 167.335 115.075ZM160.695 133.707C158.889 134.75 157.269 134.783 156.154 133.993C155.171 133.329 154.573 132.001 154.573 130.175C154.573 126.277 157.316 121.543 160.695 119.551C162.236 118.661 163.637 118.508 164.713 118.966C166.001 119.517 166.811 120.958 166.811 123.083C166.797 127.014 164.049 131.762 160.669 133.707H160.695Z" fill="#263238"/>
<path d="M166.798 123.11C166.798 127.014 164.062 131.742 160.682 133.734C158.883 134.776 157.263 134.81 156.147 134.026C155.697 133.673 155.328 133.228 155.063 132.72C154.799 132.213 154.645 131.656 154.613 131.084C154.84 130.978 155.062 130.861 155.277 130.733C158.657 128.787 161.393 124.039 161.393 120.109C161.396 119.818 161.378 119.527 161.339 119.239C161.846 118.971 162.403 118.811 162.974 118.77C163.546 118.729 164.12 118.807 164.659 119C165.974 119.557 166.798 120.985 166.798 123.11Z" fill="#263238"/>
<path d="M164.991 119.146L164.918 119.099C163.816 118.515 162.315 118.621 160.669 119.577C157.289 121.53 154.547 126.271 154.547 130.201C154.547 132.193 155.211 133.521 156.359 134.185C157.508 134.849 159.015 134.71 160.669 133.74C164.048 131.795 166.784 127.047 166.784 123.117C166.797 121.158 166.133 119.783 164.991 119.146ZM160.669 132.32C159.215 133.163 157.913 133.189 157.017 132.552C156.227 132.001 155.748 130.945 155.748 129.484C155.841 127.778 156.335 126.117 157.19 124.637C158.045 123.156 159.237 121.899 160.669 120.965C161.904 120.248 163.033 120.122 163.896 120.494C164.932 120.939 165.582 122.094 165.582 123.814C165.49 125.518 164.997 127.177 164.143 128.655C163.289 130.133 162.099 131.388 160.669 132.32Z" fill="#FF0000"/>
<path d="M155.271 125.095L170.543 116.277C172.315 115.248 166.559 109.239 162.276 108.834C159.918 108.549 157.526 108.775 155.264 109.498C155.264 109.498 158.524 113.674 157.966 116.045C157.409 118.415 155.271 125.095 155.271 125.095Z" fill="#FF0000"/>
<path d="M133.697 100.175C133.697 100.175 155.835 111.344 156.791 112.014C157.747 112.685 156.791 120.474 155.27 125.095C153.75 129.717 151.413 136.821 150.476 138.813C149.54 140.805 148.318 141.549 146.074 142.844L130.138 152.054L108.565 154.683L99.999 150.035L102.23 136.018C102.23 136.018 125.158 123.82 128.299 122.008C131.439 120.195 140.729 111.689 133.697 100.175Z" fill="#FF0000"/>
<path opacity="0.2" d="M133.697 100.175C133.697 100.175 155.835 111.344 156.791 112.014C157.747 112.685 156.791 120.474 155.27 125.095C153.75 129.717 151.413 136.821 150.476 138.813C149.54 140.805 148.318 141.549 146.074 142.844L130.138 152.054L108.565 154.683L99.999 150.035L102.23 136.018C102.23 136.018 125.158 123.82 128.299 122.008C131.439 120.195 140.729 111.689 133.697 100.175Z" fill="black"/>
<path d="M157.216 122.432C159.208 117.081 160.695 112.645 160.443 109.65C160.138 106.098 158.81 103.196 152.953 101.736C147.097 100.275 138.909 100.301 138.909 100.301L136.419 101.742C136.419 101.742 153.258 111.503 155.171 112.565C156.339 113.229 157.588 116.158 155.297 125.102L155.689 125.327C155.881 125.447 156.579 124.152 157.216 122.432Z" fill="#FF0000"/>
<path opacity="0.3" d="M157.216 122.432C159.208 117.081 160.695 112.645 160.443 109.65C160.138 106.098 158.81 103.196 152.953 101.736C147.097 100.275 138.909 100.301 138.909 100.301L136.419 101.742C136.419 101.742 153.258 111.503 155.171 112.565C156.339 113.229 157.588 116.158 155.297 125.102L155.689 125.327C155.881 125.447 156.579 124.152 157.216 122.432Z" fill="white"/>
<path d="M144.461 106.403L147.183 104.85C147.183 104.85 147.024 95.4142 143.053 93.1234C139.082 90.8326 125.603 92.393 125.603 92.393L122.907 93.9467L144.461 106.403Z" fill="#FF0000"/>
<path d="M135.629 95.2817C134.335 96.032 134.335 97.2405 135.629 97.9841C136.355 98.3538 137.159 98.5465 137.973 98.5465C138.788 98.5465 139.591 98.3538 140.317 97.9841C141.605 97.2405 141.605 96.0253 140.317 95.2817C139.59 94.9151 138.787 94.7241 137.973 94.7241C137.159 94.7241 136.356 94.9151 135.629 95.2817Z" fill="#F0F0F0"/>
<path d="M139.773 99.7901C138.863 100.321 138.863 101.178 139.773 101.702C140.287 101.965 140.856 102.102 141.433 102.102C142.01 102.102 142.579 101.965 143.093 101.702C144.009 101.178 144.009 100.321 143.093 99.7901C142.578 99.5303 142.009 99.395 141.433 99.395C140.856 99.395 140.288 99.5303 139.773 99.7901Z" fill="#F0F0F0"/>
<path d="M129.341 94.0796C128.425 94.6041 128.425 95.4607 129.341 95.9919C129.856 96.2516 130.425 96.3869 131.001 96.3869C131.578 96.3869 132.146 96.2516 132.661 95.9919C133.578 95.4607 133.578 94.6041 132.661 94.0796C132.147 93.8167 131.578 93.6797 131.001 93.6797C130.424 93.6797 129.855 93.8167 129.341 94.0796Z" fill="#F0F0F0"/>
<path d="M144.885 103.668C145.417 103.209 145.948 103.395 146.081 104.086C146.13 104.464 146.089 104.849 145.962 105.209C145.835 105.569 145.626 105.894 145.35 106.158C145.266 106.271 145.147 106.354 145.012 106.395C144.877 106.436 144.733 106.433 144.599 106.386C144.466 106.34 144.351 106.252 144.271 106.136C144.192 106.019 144.151 105.88 144.155 105.739C144.104 105.361 144.144 104.976 144.271 104.615C144.398 104.255 144.608 103.93 144.885 103.668Z" fill="#FF0000"/>
<path d="M151.081 106.603L145.662 103.475L144.48 106.337L149.905 109.464L151.081 106.603Z" fill="#FF0000"/>
<path d="M150.244 106.782C150.329 106.669 150.447 106.586 150.582 106.545C150.717 106.504 150.862 106.507 150.995 106.553C151.128 106.6 151.243 106.688 151.323 106.804C151.403 106.921 151.443 107.059 151.439 107.2C151.49 107.579 151.45 107.964 151.323 108.324C151.196 108.684 150.985 109.009 150.709 109.272C150.178 109.73 149.646 109.538 149.514 108.854C149.464 108.475 149.504 108.091 149.631 107.731C149.758 107.371 149.968 107.046 150.244 106.782Z" fill="#FF0000"/>
<path d="M150.244 106.782C150.329 106.669 150.447 106.586 150.582 106.545C150.717 106.504 150.862 106.507 150.995 106.553C151.128 106.6 151.243 106.688 151.323 106.804C151.403 106.921 151.443 107.059 151.439 107.2C151.49 107.579 151.45 107.964 151.323 108.324C151.196 108.684 150.985 109.009 150.709 109.272C150.178 109.73 149.646 109.538 149.514 108.854C149.464 108.475 149.504 108.091 149.631 107.731C149.758 107.371 149.968 107.046 150.244 106.782Z" fill="black"/>
<path d="M104.003 152.757C104.003 152.89 104.003 153.009 104.003 153.142C104.003 153.408 104.003 153.68 104.003 153.952C102.927 153.494 101.526 153.647 100.019 154.537C96.6393 156.489 93.897 161.236 93.897 165.161C93.897 166.98 94.4946 168.295 95.4773 168.979C95.2014 169.175 94.9155 169.357 94.6207 169.523L94.3087 169.682L93.3724 173.208L87.9542 170.187C86.2411 169.198 85.1853 167.086 85.1853 164.072C85.1853 158.049 89.4083 150.732 94.6207 147.717C97.1971 146.23 99.5277 146.077 101.261 147.053L106.573 150.028L106.686 150.094L104.003 152.757Z" fill="black"/>
<path d="M87.8412 142.22L83.7975 156.237L91.8916 160.911L96.0815 146.981L87.8412 142.22Z" fill="#FF0000"/>
<path opacity="0.2" d="M87.8412 142.22L83.7975 156.237L91.8916 160.911L96.0815 146.981L87.8412 142.22Z" fill="black"/>
<path d="M87.8413 142.219C87.8413 142.219 92.4296 146.117 96.0816 146.98C100.876 148.142 108.498 148.268 111.201 148.454C115.331 148.74 118.452 148.733 119.913 148.209C121.805 147.545 126.891 144.59 128.299 143.78C130.995 142.226 132.143 136.111 124.713 134.437C119.689 133.396 114.572 132.874 109.441 132.877L87.8413 142.219Z" fill="#FF0000"/>
<path d="M133.598 140.427C133.367 141.004 133.21 141.609 133.133 142.226C132.919 142.868 132.869 143.552 132.987 144.218C133.493 145.055 134.289 145.677 135.224 145.965C135.898 146.114 136.595 146.124 137.273 145.993C137.95 145.861 138.593 145.592 139.162 145.201C140.536 144.378 141.572 143.382 143.524 142.824C144.92 142.529 146.234 141.933 147.376 141.078C148.458 140.208 149.905 137.804 147.834 137.246C145.762 136.689 141.26 138.654 137.157 138.833L133.598 140.427Z" fill="#263238"/>
<path d="M133.598 137.864V140.931C133.723 141.276 133.942 141.579 134.229 141.808C134.516 142.036 134.86 142.181 135.224 142.226C135.558 142.275 135.898 142.239 136.214 142.12C136.711 141.93 137.142 141.599 137.454 141.167C137.765 140.735 137.943 140.222 137.967 139.69L138.086 137.864H133.598Z" fill="#FFA8A7"/>
<path d="M139.441 118.893C139.441 122.711 138.365 139.218 138.365 139.218C138.365 139.218 136.805 141.21 133.412 139.218L132.27 120.772L139.441 118.893Z" fill="#263238"/>
<path d="M121.645 135.161L132.269 129.039C132.705 128.811 133.069 128.468 133.324 128.047C133.578 127.626 133.713 127.144 133.713 126.652C133.713 126.161 133.578 125.678 133.324 125.258C133.069 124.837 132.705 124.494 132.269 124.265L124.355 119.697C123.909 119.471 123.416 119.354 122.917 119.354C122.417 119.354 121.925 119.471 121.479 119.697L110.855 125.819C110.422 126.049 110.059 126.393 109.806 126.813C109.554 127.234 109.42 127.715 109.42 128.206C109.42 128.697 109.554 129.178 109.806 129.599C110.059 130.019 110.422 130.363 110.855 130.593L118.77 135.161C119.216 135.387 119.708 135.505 120.208 135.505C120.707 135.505 121.2 135.387 121.645 135.161Z" fill="#FF0000"/>
<path d="M121.645 135.161L132.269 129.039C132.705 128.811 133.069 128.468 133.324 128.047C133.578 127.626 133.713 127.144 133.713 126.652C133.713 126.161 133.578 125.678 133.324 125.258C133.069 124.837 132.705 124.494 132.269 124.265L124.355 119.697C123.909 119.471 123.416 119.354 122.917 119.354C122.417 119.354 121.925 119.471 121.479 119.697L110.855 125.819C110.422 126.049 110.059 126.393 109.806 126.813C109.554 127.234 109.42 127.715 109.42 128.206C109.42 128.697 109.554 129.178 109.806 129.599C110.059 130.019 110.422 130.363 110.855 130.593L118.77 135.161C119.216 135.387 119.708 135.505 120.208 135.505C120.707 135.505 121.2 135.387 121.645 135.161Z" fill="white"/>
<path d="M110.855 127.479L118.77 132.047C119.216 132.273 119.708 132.391 120.208 132.391C120.707 132.391 121.2 132.273 121.645 132.047L132.269 125.925C132.443 125.866 132.594 125.755 132.7 125.606C132.807 125.457 132.864 125.278 132.864 125.095C132.864 124.912 132.807 124.734 132.7 124.585C132.594 124.436 132.443 124.324 132.269 124.265L124.355 119.697C123.909 119.471 123.417 119.354 122.917 119.354C122.418 119.354 121.925 119.471 121.479 119.697L110.855 125.819C110.682 125.878 110.531 125.99 110.425 126.138C110.318 126.287 110.261 126.466 110.261 126.649C110.261 126.832 110.318 127.011 110.425 127.16C110.531 127.308 110.682 127.42 110.855 127.479Z" fill="#FF0000"/>
<path d="M117.33 86.8421L115.982 92.3998L110.192 92.7517L111.44 85.0493L117.33 86.8421Z" fill="#FFA8A7"/>
<path d="M122.973 82.6587C122.973 82.6587 123.637 85.0093 123.365 85.1421C122.947 85.2058 122.522 85.2058 122.104 85.1421L122.973 82.6587Z" fill="#F28F8F"/>
<path d="M121.865 75.1554C122.794 76.251 123.644 78.0504 122.987 82.4594C122.27 87.28 121.38 87.8378 120.663 88.3026C119.727 88.9135 115.982 88.5881 114.926 87.8179C113.658 86.8949 111.699 83.9667 111.234 81.0783C110.689 77.6852 111.825 73.9204 114.322 73.2763C117.834 72.3666 121.074 74.2258 121.865 75.1554Z" fill="#FFA8A7"/>
<path d="M110.855 86.6096C111.752 87.5392 113.591 87.7915 114.746 88.004C115.902 88.2165 119.454 88.4489 120.503 85.919C121.552 83.3892 120.835 81.5698 122.124 80.959C123.412 80.3481 124.7 79.9497 125.038 79.6309C125.377 79.3122 125.384 75.1489 121.924 72.9909C118.465 70.8329 113.166 70.3349 109.68 74.7107C107.037 78.0905 108.12 83.7544 110.855 86.6096Z" fill="black"/>
<path d="M114.342 88.0373C115.238 88.117 118.073 87.6721 118.93 86.5035C119.786 85.3349 120.132 83.2433 120.258 82.1477C120.269 81.7162 120.428 81.3015 120.706 80.972C120.985 80.6425 121.368 80.4178 121.792 80.3349C122.648 80.0627 124.541 79.1331 124.541 79.1331V78.6152C125.151 78.5768 125.763 78.5768 126.373 78.6152C126.772 78.6882 126.553 79.2792 125.543 79.7905C124.534 80.3018 121.765 81.2911 121.34 81.6298C120.915 81.9684 120.716 83.396 120.377 84.9165C120.039 86.4371 118.99 88.708 114.342 88.0373Z" fill="#263238"/>
<path d="M122.309 94.3251L125.629 92.4194C125.948 91.4566 125.437 90.9719 124.534 91.0317C123.631 91.0914 123.91 90.215 123.359 89.9693C122.635 89.6373 122.223 89.8232 121.898 89.6705C121.572 89.5178 121.433 89.1326 121.008 89.0862C119.109 88.9069 117.814 91.616 117.814 91.616L122.309 94.3251Z" fill="#F28F8F"/>
<path d="M99.7733 118.707C99.7733 118.707 114.441 111.436 116.997 110.261C119.554 109.086 123.564 107.379 125.696 107.379C126.529 107.448 127.309 107.815 127.893 108.413C128.477 109.01 128.827 109.799 128.876 110.633C128.904 111.914 128.831 113.195 128.657 114.464C124.627 115.786 120.509 116.822 116.333 117.565C110.231 118.628 99.7733 118.707 99.7733 118.707Z" fill="#263238"/>
<path d="M101.367 114.504C101.367 117.519 101.081 120.653 102.336 122.857C103.591 125.062 110.391 130.161 116.792 129.092C120.975 128.388 133.392 122.671 133.392 122.671C133.392 122.671 139.414 120.46 139.441 118.887C139.481 116.569 139.321 113.302 134.069 113.442C129.281 113.568 115.158 116.516 115.158 116.516L101.367 114.504Z" fill="black"/>
<path d="M105.464 90.6204C107.735 88.2499 109.269 88.0507 110.358 88.3429C112.86 89.0591 115.283 90.0292 117.589 91.2379C117.589 91.2379 116.712 99.7238 120.862 102.167V115.394C120.862 115.394 120.736 116.828 118.93 118.256C117.336 119.511 113.731 120.779 109.428 120.421C104.315 119.996 101.367 114.504 101.367 114.504C101.367 114.504 101.234 103.688 101.958 99.3918C102.808 94.3786 104.68 91.4438 105.464 90.6204Z" fill="black"/>
<path d="M120.862 102.811C120.862 102.811 118.352 100.819 117.588 98.2295C117.588 98.2295 117.887 102.293 120.862 104.352V102.811Z" fill="#263238"/>
<path d="M144.095 109.053C145.287 109.102 146.46 108.738 147.415 108.024C147.415 108.024 148.571 105.779 149.992 105.972C149.992 105.972 150.244 105.016 149.66 104.704C149.075 104.392 148.823 104.478 148.584 104.146C148.345 103.814 148.318 103.196 147.256 103.196C146.818 103.196 146.877 102.884 145.815 102.758C144.753 102.632 143.704 105.082 142.927 105.082L144.095 109.053Z" fill="#FFA8A7"/>
<path d="M117.588 91.2378C121.234 91.8022 122.555 92.8845 123.883 94.1129C125.211 95.3413 133.339 103.495 133.339 103.495L143.179 104.91C143.696 105.328 144.076 105.893 144.268 106.53C144.666 107.685 144.308 108.947 143.929 109.245C143.929 109.245 134.169 109.83 132.25 109.465C130.331 109.099 120.829 102.791 120.829 102.791C119.921 102.107 119.159 101.247 118.589 100.262C118.018 99.2781 117.651 98.1896 117.509 97.0611C116.891 93.0571 117.588 91.2378 117.588 91.2378Z" fill="black"/>
<path d="M108.837 126.31L93.7575 144.716C93.5901 144.737 93.4216 144.748 93.2529 144.749C92.6549 144.759 92.064 144.62 91.5331 144.344L78.7976 136.987L77.9344 136.489C77.4629 136.217 77.0712 135.101 77.0712 133.999V130.898C77.0707 127.713 77.9086 124.584 79.5007 121.825C81.0929 119.066 83.3832 116.775 86.1414 115.181L101.347 106.403L117.529 115.746L108.837 126.31Z" fill="#FF0000"/>
<g opacity="0.1">
<path opacity="0.1" d="M108.837 126.31L93.7575 144.716C93.5901 144.737 93.4216 144.748 93.2529 144.749C92.6549 144.759 92.064 144.62 91.5331 144.344L78.7976 136.987L77.9344 136.489C77.4629 136.217 77.0712 135.101 77.0712 133.999V130.898C77.0707 127.713 77.9086 124.584 79.5007 121.825C81.0929 119.066 83.3832 116.775 86.1414 115.181L101.347 106.403L117.529 115.746L108.837 126.31Z" fill="black"/>
</g>
<path d="M103.638 132.658L117.509 115.753L101.327 106.41L86.1281 115.182C84.162 116.32 82.4276 117.818 81.0153 119.597L103.638 132.658Z" fill="#FF0000"/>
<path d="M117.509 129.325C117.509 130.427 117.124 131.543 116.646 131.815L115.782 132.313L94.9593 144.338C94.5804 144.542 94.1655 144.671 93.7375 144.716C93.5702 144.738 93.4016 144.749 93.2329 144.75V140.241C93.2324 137.055 94.071 133.925 95.6645 131.166C97.2579 128.407 99.5499 126.116 102.31 124.524L104.03 123.535L117.509 115.746V129.325Z" fill="#FF0000"/>
<g opacity="0.2">
<path opacity="0.2" d="M117.509 129.325C117.509 130.427 117.124 131.543 116.646 131.815L115.782 132.313L94.9593 144.338C94.5804 144.542 94.1655 144.671 93.7375 144.716C93.5702 144.738 93.4016 144.749 93.2329 144.75V140.241C93.2324 137.055 94.071 133.925 95.6645 131.166C97.2579 128.407 99.5499 126.116 102.31 124.524L104.03 123.535L117.509 115.746V129.325Z" fill="black"/>
</g>
<path d="M121.977 152.1L130.125 152.073L141.785 145.34L130.364 153.594L121.765 153.713L121.977 152.1Z" fill="#E0E0E0"/>
<path d="M102.197 163.693C102.197 163.693 116.885 158.155 118.133 157.505C119.598 156.607 120.988 155.592 122.29 154.47C122.555 154.119 122.68 153.681 122.639 153.242C122.599 152.804 122.396 152.396 122.071 152.1C122.071 152.1 116.095 151.827 114.561 152.299C113.704 152.558 99.8796 156.993 99.8796 156.993L102.197 163.693Z" fill="#E0E0E0"/>
<path d="M101.54 157.505C100.324 156.462 99.1027 156.894 98.8039 158.461C98.6898 159.326 98.7812 160.205 99.0708 161.028C99.3604 161.85 99.84 162.593 100.471 163.195C101.686 164.238 102.907 163.813 103.206 162.239C103.32 161.375 103.228 160.496 102.939 159.673C102.649 158.85 102.17 158.108 101.54 157.505Z" fill="black"/>
</svg>
