<svg width="290" height="298" viewBox="0 0 290 298" fill="none" xmlns="http://www.w3.org/2000/svg">
<path d="M71.915 39.806C84.4236 6.58347 109.005 0.52084 122.724 0.52955C162.358 0.538261 177.663 13.491 203.124 42.6283C227 69.9536 244.038 65.8335 257.749 76.3212C280.1 93.4289 292.8 152.487 249.5 188.602C188.115 239.812 148.682 242.922 95.6342 226.389C59.8594 215.239 29.8773 184.769 29.1543 151.033C27.7606 85.8506 58.3873 75.7375 71.915 39.806Z" fill="#FDF0B9"/>
<path d="M262.557 72.2358L262.392 72.1749C260.911 71.6174 260.162 69.9711 260.71 68.4902L273.602 33.996C274.16 32.5151 275.806 31.766 277.287 32.3148L277.452 32.3758C278.933 32.9333 279.682 34.5796 279.133 36.0604L266.242 70.5547C265.684 72.0355 264.038 72.7933 262.557 72.2358Z" fill="#EDB82C"/>
<path d="M258.245 67.7589L258.08 67.7067C256.564 67.2711 255.684 65.6858 256.12 64.1614L266.964 26.3658C267.4 24.8501 268.985 23.9704 270.51 24.4059L270.675 24.4582C272.191 24.8937 273.071 26.479 272.635 28.0034L261.782 65.799C261.346 67.3234 259.761 68.1945 258.245 67.7589Z" fill="#EDB82C"/>
<path d="M256.433 78.0896L256.268 78.0286C254.787 77.4711 254.038 75.8248 254.587 74.344L268.358 37.5152C268.916 36.0344 270.562 35.2853 272.043 35.8341L272.208 35.8951C273.689 36.4525 274.438 38.0989 273.89 39.5797L260.118 76.4084C259.569 77.8979 257.914 78.6471 256.433 78.0896Z" fill="#EDB82C"/>
<path d="M253.541 63.7953L253.376 63.7431C251.86 63.3075 250.981 61.7222 251.416 60.1978L262.261 22.4022C262.696 20.8865 264.282 20.0067 265.806 20.4423L265.972 20.4945C267.487 20.9301 268.367 22.5154 267.932 24.0398L257.087 61.8354C256.651 63.3598 255.066 64.2309 253.541 63.7953Z" fill="#EDB82C"/>
<path d="M249.413 66.5656L249.238 66.5394C247.679 66.2781 246.625 64.7973 246.887 63.2381L253.42 24.4669C253.681 22.9076 255.162 21.8536 256.721 22.115L256.895 22.1411C258.454 22.4024 259.508 23.8832 259.247 25.4424L252.714 64.2137C252.453 65.7729 250.972 66.8269 249.413 66.5656Z" fill="#EDB82C"/>
<path d="M245.972 69.44L245.798 69.4225C244.221 69.2745 243.071 67.872 243.219 66.3041L246.956 27.1583C247.104 25.5817 248.507 24.4319 250.075 24.58L250.249 24.5974C251.826 24.7455 252.975 26.1479 252.827 27.7158L249.09 66.8616C248.942 68.4382 247.54 69.588 245.972 69.44Z" fill="#EDB82C"/>
<path d="M253.803 61.4696L253.628 61.4435C252.069 61.1822 251.015 59.7013 251.277 58.1421L257.81 19.3709C258.071 17.8117 259.552 16.7577 261.111 17.019L261.285 17.0452C262.844 17.3065 263.898 18.7873 263.637 20.3465L257.104 59.1177C256.834 60.6856 255.362 61.7396 253.803 61.4696Z" fill="#EDB82C"/>
<path d="M240.38 72.6279L240.205 72.6105C238.629 72.4624 237.479 71.06 237.627 69.4921L241.364 30.3463C241.512 28.7697 242.914 27.6199 244.482 27.768L244.656 27.7854C246.233 27.9335 247.383 29.3359 247.235 30.9038L243.498 70.0496C243.35 71.6262 241.947 72.776 240.38 72.6279Z" fill="#EDB82C"/>
<path d="M237.853 67.5236L237.679 67.5149C236.103 67.4539 234.874 66.1212 234.935 64.5358L236.512 25.2507C236.573 23.674 237.906 22.4458 239.491 22.5068L239.665 22.5155C241.242 22.5765 242.47 23.9092 242.409 25.4946L240.833 64.7797C240.763 66.3564 239.43 67.5933 237.853 67.5236Z" fill="#EDB82C"/>
<path d="M275.266 53.421C275.458 52.2625 274.926 51.1649 273.829 50.1284C273.881 50.7904 273.846 51.4524 273.689 52.097C272.322 58.0028 262.731 60.8164 252.287 58.3861C241.834 55.9558 234.483 49.205 235.85 43.2992C235.998 42.672 236.242 42.0797 236.564 41.5222C235.179 41.9752 234.247 42.7156 233.916 43.8131L230.929 80.7377C230.911 80.999 230.929 81.2516 230.972 81.4955C230.972 81.5042 230.963 81.5129 230.963 81.5129C230.502 83.5077 236.878 86.6871 245.205 88.6208C251.468 90.0755 257.043 90.4065 259.63 89.64C259.665 89.6313 259.691 89.6226 259.726 89.6052C260.405 89.3874 260.867 89.0912 261.059 88.708C261.277 88.4553 261.459 88.1766 261.581 87.8543L275.266 53.421Z" fill="#FF0000"/>
<path d="M45.3142 90.835L29.5044 94.2321L25.2884 95.138L9.47852 98.5352L24.426 146.453C24.426 146.487 24.4173 146.522 24.426 146.557C24.7832 148.203 31.1071 148.238 38.5548 146.636C46.0024 145.033 51.7601 142.402 51.403 140.765C51.3943 140.73 51.3682 140.704 51.3595 140.669L45.3142 90.835Z" fill="#E06738"/>
<path d="M45.6056 79.197L27.2697 83.1342L22.383 84.1882L4.047 88.1255L21.3812 143.708C21.3812 143.743 21.3725 143.787 21.3812 143.83C21.7906 145.738 29.125 145.781 37.766 143.917C46.407 142.053 53.0794 139.013 52.67 137.106C52.6613 137.071 52.6352 137.036 52.6177 137.001L45.6056 79.197Z" fill="#FDF0B9"/>
<path d="M38.6546 100.207L38.2452 100.233C37.3915 100.294 36.6424 99.6585 36.5814 98.7961L35.5623 85.0594C35.5013 84.2057 36.1372 83.4566 36.9995 83.3957L37.4089 83.3695C38.2626 83.3085 39.0117 83.9444 39.0727 84.8068L40.0918 98.5435C40.1441 99.3972 39.5082 100.146 38.6546 100.207Z" fill="black"/>
<path d="M26.1158 89.6917C38.9328 86.9387 48.6719 81.6757 47.8688 77.9364C47.0656 74.1972 36.0243 73.3976 23.2073 76.1506C10.3902 78.9035 0.651088 84.1665 1.45425 87.9058C2.25741 91.6451 13.2987 92.4447 26.1158 89.6917Z" fill="#FF0000"/>
<mask id="mask0" style="mask-type:alpha" maskUnits="userSpaceOnUse" x="8" y="86" width="42" height="57">
<path d="M43.6596 86.6152L28.3645 89.9228L24.2882 90.8083L8.99316 94.1159L23.4526 140.81C23.4526 140.839 23.4454 140.876 23.4526 140.913C23.7942 142.515 29.9122 142.552 37.1201 140.986C44.3281 139.42 49.8939 136.866 49.5524 135.263C49.5451 135.234 49.5233 135.205 49.5088 135.175L43.6596 86.6152Z" fill="#A03AB4"/>
</mask>
<g mask="url(#mask0)">
<path d="M10.2316 102.951C10.2316 102.951 15.2576 95.8519 19.6304 96.3745C24.0119 96.8972 24.8481 98.3693 30.7539 96.7055C36.6598 95.0331 37.3044 91.8972 42.8095 92.507C46.6683 92.9338 51.015 96.6968 51.015 96.6968L54.2292 146.383L20.3447 153.665L10.2316 102.951Z" fill="#EDB82C"/>
</g>
<path d="M36.7469 53.6313C36.7643 53.7184 36.773 53.7968 36.7817 53.8839L37.888 68.8488L38.6894 79.5804C37.6354 80.0682 36.4856 80.5386 35.2661 81.0002L34.3689 68.8401L33.2888 54.1365C33.2191 53.1696 33.9333 52.3247 34.9089 52.255C35.78 52.194 36.564 52.7951 36.7469 53.6313Z" fill="black"/>
<path d="M106.488 53.6648H185.624C194.474 53.6648 201.652 60.8424 201.652 69.6924V235.814C201.652 244.664 194.474 251.841 185.624 251.841H106.488C97.6376 251.841 90.46 244.664 90.46 235.814V69.6837C90.46 60.8337 97.6376 53.6648 106.488 53.6648Z" fill="black"/>
<path d="M108.448 60.8599H183.656C189.614 60.8599 194.448 65.6943 194.448 71.6524V233.845C194.448 239.803 189.614 244.638 183.656 244.638H108.448C102.49 244.638 97.6551 239.803 97.6551 233.845V71.6524C97.6551 65.6856 102.49 60.8599 108.448 60.8599Z" fill="#FFC700"/>
<path d="M110.408 102.532H181.696C184.405 102.532 186.6 104.727 186.6 107.436V149.291C186.6 152 184.405 154.195 181.696 154.195H110.408C107.699 154.195 105.503 152 105.503 149.291V107.436C105.503 104.727 107.699 102.532 110.408 102.532Z" fill="white"/>
<path d="M110.408 161.39H181.696C184.405 161.39 186.6 163.585 186.6 166.294V182.644C186.6 185.353 184.405 187.548 181.696 187.548H110.408C107.699 187.548 105.503 185.353 105.503 182.644V166.294C105.503 163.585 107.699 161.39 110.408 161.39Z" fill="white"/>
<path d="M110.408 194.743H181.696C184.405 194.743 186.6 196.938 186.6 199.647V215.997C186.6 218.706 184.405 220.901 181.696 220.901H110.408C107.699 220.901 105.503 218.706 105.503 215.997V199.647C105.503 196.938 107.699 194.743 110.408 194.743Z" fill="white"/>
<mask id="mask1" style="mask-type:alpha" maskUnits="userSpaceOnUse" x="97" y="60" width="98" height="185">
<path d="M108.448 60.8599H183.656C189.614 60.8599 194.448 65.6943 194.448 71.6524V233.845C194.448 239.803 189.614 244.638 183.656 244.638H108.448C102.49 244.638 97.6551 239.803 97.6551 233.845V71.6524C97.6551 65.6856 102.49 60.8599 108.448 60.8599Z" fill="white"/>
</mask>
<g mask="url(#mask1)">
<path d="M110.408 228.096H181.696C184.405 228.096 186.6 230.291 186.6 233V249.35C186.6 252.059 184.405 254.254 181.696 254.254H110.408C107.699 254.254 105.503 252.059 105.503 249.35V233C105.503 230.3 107.699 228.096 110.408 228.096Z" fill="#FFC700"/>
</g>
<path d="M173.011 107.819H121.453C120.991 110.632 121.453 118.646 121.453 118.646C121.453 123.15 132.994 126.799 147.236 126.799C161.478 126.799 173.02 123.15 173.02 118.646C173.359 112.261 173.011 107.819 173.011 107.819Z" fill="#EDB82C"/>
<path d="M172.367 106.512C174.814 106.382 176.809 108.96 175.99 110.528C175.163 112.096 172.114 113.272 171.112 113.568C168.821 114.247 170.476 117.766 166.165 116.721C163.935 116.181 163.273 117.697 162.036 118.908C160.799 120.118 157.497 119.273 154.405 117.932C151.313 116.599 148.63 120.362 145.633 119.996C142.646 119.631 139.963 118.176 138.003 118.908C136.043 119.639 134.911 118.908 132.533 116.599C130.163 114.291 127.785 117.453 125.625 116.599C123.456 115.746 124.284 113.681 121.914 112.592C119.545 111.503 117.167 111.094 117.167 109.735C117.167 106.66 121.871 105.894 121.871 105.894L172.367 106.512Z" fill="#E06738"/>
<path d="M173.011 103.002C173.011 112.444 161.469 114.509 147.227 114.509C132.985 114.509 121.444 112.453 121.444 103.002C121.444 93.551 132.985 85.8943 147.227 85.8943C161.469 85.8943 173.011 93.551 173.011 103.002Z" fill="#EDB82C"/>
<path d="M164.701 73.219H128.648C127.655 73.219 126.844 72.4089 126.844 71.4159C126.844 70.4229 127.655 69.6128 128.648 69.6128H164.701C165.694 69.6128 166.504 70.4229 166.504 71.4159C166.504 72.4089 165.694 73.219 164.701 73.219Z" fill="#FF0000"/>
<path d="M170.084 140.449H123.256C122.263 140.449 121.453 139.639 121.453 138.646C121.453 137.653 122.263 136.843 123.256 136.843H170.093C171.086 136.843 171.896 137.653 171.896 138.646C171.896 139.639 171.086 140.449 170.084 140.449Z" fill="#FF0000"/>
<path d="M161.409 146.939H131.932C130.939 146.939 130.128 146.129 130.128 145.136C130.128 144.143 130.939 143.333 131.932 143.333H161.409C162.402 143.333 163.212 144.143 163.212 145.136C163.212 146.129 162.41 146.939 161.409 146.939Z" fill="#FF0000"/>
<path d="M125.094 182.043H114.38C113.16 182.043 112.167 181.05 112.167 179.83V169.116C112.167 167.897 113.16 166.904 114.38 166.904H125.094C126.313 166.904 127.306 167.897 127.306 169.116V179.83C127.306 181.05 126.313 182.043 125.094 182.043Z" fill="#FF0000"/>
<path d="M164.832 170.998H132.942C132.28 170.998 131.749 170.466 131.749 169.804C131.749 169.142 132.28 168.611 132.942 168.611H164.832C165.494 168.611 166.025 169.142 166.025 169.804C166.025 170.466 165.494 170.998 164.832 170.998Z" fill="#FFC700"/>
<path d="M164.832 175.745H132.942C132.28 175.745 131.749 175.214 131.749 174.552C131.749 173.89 132.28 173.358 132.942 173.358H164.832C165.494 173.358 166.025 173.89 166.025 174.552C166.025 175.205 165.494 175.745 164.832 175.745Z" fill="#FFC700"/>
<path d="M160.18 180.335H132.942C132.28 180.335 131.749 179.804 131.749 179.142C131.749 178.48 132.28 177.949 132.942 177.949H160.18C160.843 177.949 161.374 178.48 161.374 179.142C161.383 179.795 160.843 180.335 160.18 180.335Z" fill="#FFC700"/>
<path d="M125.094 215.396H114.38C113.16 215.396 112.167 214.403 112.167 213.183V202.469C112.167 201.25 113.16 200.257 114.38 200.257H125.094C126.313 200.257 127.306 201.25 127.306 202.469V213.183C127.306 214.403 126.313 215.396 125.094 215.396Z" fill="#FF0000"/>
<path d="M164.832 204.368H132.942C132.28 204.368 131.749 203.837 131.749 203.175C131.749 202.513 132.28 201.981 132.942 201.981H164.832C165.494 201.981 166.025 202.513 166.025 203.175C166.025 203.837 165.494 204.368 164.832 204.368Z" fill="#FFC700"/>
<path d="M164.832 209.115H132.942C132.28 209.115 131.749 208.584 131.749 207.922C131.749 207.26 132.28 206.729 132.942 206.729H164.832C165.494 206.729 166.025 207.26 166.025 207.922C166.025 208.584 165.494 209.115 164.832 209.115Z" fill="#FFC700"/>
<path d="M160.18 213.671H132.942C132.28 213.671 131.749 213.14 131.749 212.478C131.749 211.816 132.28 211.284 132.942 211.284H160.18C160.843 211.284 161.374 211.816 161.374 212.478C161.383 213.131 160.843 213.671 160.18 213.671Z" fill="#FFC700"/>
<path d="M265.432 225.823C259.674 215.37 258.036 186.163 254.125 169.935C247.801 143.672 235.493 145.388 228.908 148.097C228.681 148.193 226.146 143.986 220.066 143.986C212.897 143.986 212.958 147.348 210.833 147.723C209.239 148.002 205.946 146.573 201.382 147.618C196.791 148.672 194.927 152.2 193.394 153.35L187.732 132.227C186.008 125.798 179.396 121.983 172.968 123.707C166.539 125.432 162.724 132.044 164.449 138.472L179.692 195.309L167.637 187.13C162.132 183.393 154.632 184.822 150.895 190.335C147.158 195.841 148.587 203.34 154.1 207.077L187.523 229.769C195.075 235.126 204.875 242.66 208.481 248.009C214.666 257.181 223.864 295.438 223.864 295.438C270.371 306.536 282.295 275.526 282.295 275.526L265.432 225.823Z" fill="#F0C7A9"/>
<path d="M277.156 252.8L271.137 234.046C270.214 231.171 267.496 229.307 264.561 229.542L228.568 232.408C228.124 232.443 227.706 232.539 227.305 232.661L226.826 231.319L224.317 234.594C224.152 234.795 223.986 234.995 223.847 235.213L223.76 235.335L223.768 235.352C223.525 235.735 223.307 236.145 223.141 236.572C222.636 237.913 222.558 239.455 223.045 240.962L229.065 259.716C229.988 262.591 232.706 264.455 235.641 264.219L271.634 261.354C275.736 261.023 278.454 256.824 277.156 252.8Z" fill="#0E7F3D"/>
<path d="M274.343 254.289L279.926 268.575C279.926 268.575 285.701 242.661 271.146 234.046L274.343 254.289Z" fill="black"/>
<path d="M271.337 258.253L237.627 260.944C234.874 261.162 232.322 259.289 231.442 256.415L225.711 237.635C224.483 233.602 227 229.42 230.859 229.116L264.569 226.424C267.322 226.206 269.874 228.079 270.754 230.953L276.485 249.734C277.714 253.767 275.187 257.948 271.337 258.253Z" fill="#FFC700"/>
<path d="M229.047 259.716C229.047 259.716 215.946 265.343 219.517 278.862C219.517 278.862 209.5 283.348 207.366 272.782C205.223 262.225 204.753 243.679 222.767 239.777L229.047 259.716Z" fill="black"/>
<path d="M191.704 146.573L199.466 172.914" stroke="black" stroke-width="1.75615" stroke-miterlimit="10" stroke-linecap="round"/>
<path d="M211.53 148.193C211.53 148.193 218.472 158.637 219.552 171.294" stroke="black" stroke-width="1.75615" stroke-miterlimit="10" stroke-linecap="round"/>
<path d="M229.047 148.594C229.047 148.594 235.99 159.038 237.07 171.695" stroke="black" stroke-width="1.75615" stroke-miterlimit="10" stroke-linecap="round"/>
<path d="M45.8367 215.998C52.7402 215.998 58.3366 210.402 58.3366 203.498C58.3366 196.595 52.7402 190.999 45.8367 190.999C38.9333 190.999 33.3369 196.595 33.3369 203.498C33.3369 210.402 38.9333 215.998 45.8367 215.998Z" fill="#FF0000"/>
<path d="M289.943 133.002C290.396 131.417 288.097 129.282 284.386 127.514C283.663 127.166 283.236 126.408 283.332 125.606C283.811 121.521 283.219 118.438 281.633 117.985C280.048 117.532 277.914 119.831 276.146 123.542C275.797 124.265 275.039 124.692 274.238 124.596C270.153 124.117 267.069 124.709 266.616 126.295C266.163 127.88 268.463 130.014 272.174 131.782C272.897 132.131 273.323 132.889 273.228 133.69C272.748 137.775 273.341 140.859 274.926 141.312C276.511 141.765 278.646 139.465 280.414 135.754C280.762 135.031 281.52 134.605 282.321 134.7C286.398 135.18 289.482 134.587 289.943 133.002Z" fill="#FFC700"/>
<path d="M104.624 9.30999C104.275 7.69851 101.235 6.90584 97.1237 7.1149C96.3224 7.15845 95.5907 6.68807 95.2945 5.93896C93.7701 2.11497 91.7841 -0.31531 90.1813 0.033117C88.5699 0.381544 87.7772 3.42157 87.9862 7.53301C88.0298 8.33439 87.5594 9.06609 86.8103 9.36225C82.9863 10.8866 80.556 12.8727 80.9045 14.4754C81.2529 16.0869 84.2929 16.8796 88.4043 16.6705C89.2057 16.627 89.9374 17.0973 90.2336 17.8465C91.758 21.6704 93.744 24.1007 95.3468 23.7523C96.9582 23.4039 97.7509 20.3638 97.5419 16.2524C97.4983 15.451 97.9687 14.7193 98.7178 14.4232C102.542 12.9075 104.972 10.9215 104.624 9.30999Z" fill="#FF0000"/>
</svg>
