<svg width="36" height="36" viewBox="0 0 36 36" fill="none" xmlns="http://www.w3.org/2000/svg">
<path d="M9.44906 24.198C9.45781 24.165 9.46382 24.1314 9.46701 24.0975C9.46701 23.3632 10.1145 22.8994 10.8552 23.0441C11.4089 23.1456 11.9199 23.4057 12.3242 23.7916C12.9975 24.4387 13.8246 24.6959 14.7639 24.506C15.1511 24.4276 15.4507 24.1902 15.7144 23.9131C16.2127 23.3897 16.454 22.7504 16.6122 22.0581C16.8277 21.0864 16.7446 20.1291 16.537 19.1728C16.5224 19.1055 16.4057 19.0359 16.3227 19.0094C16.1588 18.9586 16.0915 18.8824 16.1173 18.7058C16.1454 18.5059 16.1409 18.3028 16.151 18.0786C16.3754 18.1316 16.5774 18.189 16.7873 18.2321C17.9331 18.4529 19.1002 18.517 20.2291 18.2486C22.5319 17.7021 24.1232 16.334 24.8437 14.066C24.883 13.9424 24.9189 13.8187 24.9559 13.6961C24.9559 13.6862 24.9727 13.6807 25.003 13.6553C25.2185 13.7502 25.4519 13.8441 25.6685 13.9545C25.691 13.9735 25.7084 13.9976 25.7191 14.0248C25.7299 14.0519 25.7337 14.0813 25.7302 14.1102C25.4654 15.0377 25.1153 15.9244 24.5048 16.6962C23.6049 17.8599 22.3379 18.6969 20.9024 19.0757L20.7633 19.1165C21.7732 19.6725 22.7025 20.3596 23.5262 21.1593C24.3398 21.9664 25.0592 22.8409 25.4744 23.9197C25.5027 23.9164 25.5305 23.9101 25.5574 23.9009C26.2117 23.5818 26.9299 23.5454 27.6347 23.4714C27.8952 23.4525 28.1569 23.4833 28.4056 23.562C28.7703 23.6724 28.868 23.9749 28.6851 24.2984C28.6458 24.3669 28.6155 24.4398 28.5796 24.5138C29.2204 24.6242 29.5133 24.8792 29.5447 25.3253C29.5592 25.5198 29.5067 25.7135 29.3958 25.8751C29.2848 26.0367 29.1219 26.1569 28.9331 26.2164C28.4976 26.3522 28.134 26.1722 27.8108 25.6477L27.1925 26.3555C27.7199 26.6868 27.8905 27.0269 27.7536 27.4597C27.6927 27.6458 27.5691 27.8058 27.4032 27.9134C27.2373 28.021 27.0391 28.0698 26.8412 28.0515C26.3924 28.0129 26.1219 27.7148 26.031 27.1627C25.8234 27.177 25.6158 27.2046 25.4082 27.2024C25.2321 27.2005 25.0611 27.1447 24.9187 27.0428C24.7764 26.9409 24.6697 26.7979 24.6136 26.6338C24.4184 25.9713 24.452 25.322 24.7977 24.7103C24.8331 24.6551 24.854 24.5921 24.8587 24.527C24.8634 24.4619 24.8517 24.3967 24.8246 24.3371C24.3275 22.9767 23.3747 21.962 22.2839 21.0455C21.4528 20.3548 20.5254 19.7848 19.53 19.3528C19.4569 19.3206 19.3787 19.3012 19.2988 19.2954C18.7074 19.259 18.116 19.2281 17.5246 19.196C17.4707 19.196 17.4123 19.196 17.3372 19.196C17.3529 19.355 17.3686 19.4986 17.3832 19.6377C17.4875 20.6756 17.51 21.7113 17.2227 22.7294C17.0413 23.4178 16.6727 24.0446 16.1566 24.5425C15.3037 25.3474 14.1175 25.566 12.8898 25.0305L12.6294 24.9201C12.6294 25.0636 12.6294 25.1785 12.6294 25.2922C12.6403 25.9664 12.4418 26.6278 12.0605 27.1881C11.9523 27.3456 11.8228 27.4879 11.6755 27.611C11.4298 27.8186 11.285 27.8064 11.0314 27.5999C11.0078 27.5801 10.9831 27.5613 10.9439 27.5315C10.8036 27.7799 10.6184 27.9864 10.3278 28.0239C10.1437 28.0486 9.95644 28.0316 9.78011 27.9742C9.61103 27.9066 9.46861 27.7872 9.374 27.6336C9.27938 27.4801 9.23762 27.3006 9.25491 27.1218C9.2897 26.7111 9.56801 26.4405 10.1078 26.3169C10.0483 26.1888 9.98884 26.0651 9.93161 25.9403C9.87438 25.8156 9.81939 25.6963 9.76215 25.5738C9.20104 25.9249 8.83408 25.9459 8.49741 25.6533C8.35491 25.5315 8.25611 25.3677 8.21568 25.1863C8.17525 25.0049 8.19534 24.8155 8.27297 24.6463C8.46711 24.2344 8.80266 24.1041 9.44906 24.198ZM28.6693 25.0084C28.5659 25.009 28.467 25.0497 28.3938 25.1216C28.3207 25.1935 28.2794 25.2909 28.2788 25.3927C28.2753 25.4459 28.283 25.4993 28.3014 25.5494C28.3198 25.5996 28.3486 25.6455 28.3858 25.6842C28.4231 25.723 28.4681 25.7537 28.518 25.7745C28.5679 25.7954 28.6216 25.8059 28.6758 25.8053C28.73 25.8048 28.7835 25.7933 28.833 25.7714C28.8825 25.7496 28.9268 25.718 28.9633 25.6785C28.9998 25.6391 29.0276 25.5926 29.045 25.5421C29.0624 25.4916 29.069 25.4381 29.0644 25.3849C29.0626 25.2835 29.02 25.1869 28.946 25.1163C28.8719 25.0458 28.7724 25.0069 28.6693 25.0084V25.0084ZM8.67472 24.9941C8.67338 25.0448 8.68227 25.0953 8.70087 25.1426C8.71948 25.19 8.74743 25.2332 8.78311 25.2699C8.8188 25.3065 8.86151 25.3359 8.90878 25.3562C8.95605 25.3765 9.00694 25.3874 9.05852 25.3883C9.16286 25.3901 9.26375 25.3515 9.33951 25.2809C9.41527 25.2103 9.45984 25.1132 9.46364 25.0106C9.46317 24.9083 9.42271 24.81 9.35063 24.7362C9.27856 24.6625 9.18039 24.6188 9.07648 24.6142C8.97209 24.6125 8.87123 24.6514 8.79595 24.7226C8.72066 24.7938 8.67708 24.8914 8.67472 24.9941V24.9941ZM10.1336 26.8104C10.0568 26.8102 9.98171 26.8324 9.91768 26.874C9.85365 26.9157 9.80357 26.9751 9.77373 27.0447C9.7439 27.1143 9.73565 27.191 9.75001 27.2653C9.76437 27.3395 9.80071 27.4078 9.85445 27.4618C9.90819 27.5157 9.97694 27.5529 10.0521 27.5685C10.1272 27.5841 10.2053 27.5775 10.2766 27.5495C10.348 27.5216 10.4093 27.4735 10.4529 27.4114C10.4966 27.3492 10.5206 27.2757 10.5219 27.2002C10.5229 27.1493 10.5136 27.0987 10.4945 27.0514C10.4754 27.0041 10.4469 26.961 10.4106 26.9247C10.3743 26.8883 10.331 26.8595 10.2833 26.8399C10.2355 26.8203 10.1842 26.8103 10.1325 26.8104H10.1336ZM26.9445 26.8104C26.8923 26.805 26.8395 26.81 26.7893 26.8252C26.7391 26.8404 26.6925 26.8654 26.6524 26.8987C26.6123 26.932 26.5794 26.973 26.5558 27.0191C26.5322 27.0652 26.5183 27.1156 26.515 27.1672C26.5117 27.2187 26.519 27.2704 26.5364 27.3191C26.5539 27.3678 26.5813 27.4125 26.6168 27.4506C26.6523 27.4887 26.6952 27.5192 26.7431 27.5405C26.7909 27.5618 26.8426 27.5734 26.8951 27.5745C26.9466 27.5784 26.9983 27.5722 27.0473 27.5562C27.0963 27.5402 27.1415 27.5147 27.1804 27.4813C27.2193 27.4479 27.251 27.4072 27.2737 27.3616C27.2964 27.316 27.3096 27.2664 27.3126 27.2157C27.3161 27.1651 27.3092 27.1144 27.2924 27.0665C27.2756 27.0186 27.2492 26.9745 27.2148 26.9368C27.1804 26.8991 27.1386 26.8686 27.092 26.8471C27.0454 26.8256 26.9948 26.8135 26.9434 26.8115L26.9445 26.8104Z" fill="white"/>
<path d="M10.5872 14.3639C10.4769 14.4938 10.3533 14.6483 10.2197 14.7928C10.0862 14.9372 9.9516 14.9305 9.8247 14.7749C8.77765 13.4992 7.97689 12.0347 7.46433 10.4581C7.03267 9.18193 6.86952 7.8281 6.98541 6.48398C7.22046 3.97679 8.3405 2.02164 10.5861 0.813395C11.6101 0.260222 12.7158 0.0452236 13.8624 0.000432179C14.0003 -0.00516674 14.0654 0.0429841 14.0764 0.182957C14.0842 0.288217 14.1085 0.392357 14.1261 0.496497C14.1725 0.759646 14.1725 0.756287 13.8999 0.774203C12.59 0.862666 11.353 1.18852 10.286 1.99925C8.97722 2.99362 8.21581 4.33064 7.94766 5.9644C7.79996 6.91254 7.80406 7.87865 7.9598 8.82545C8.19043 10.326 8.77086 11.6787 9.572 12.9407C9.88539 13.4255 10.2385 13.8779 10.5872 14.3639Z" fill="white"/>
<path d="M6.95799 28.5593C7.02266 28.5593 7.0676 28.5518 7.11692 28.5518C9.58647 28.5518 12.0549 28.5518 14.5245 28.5593C16.0667 28.5646 17.6089 28.5917 19.1512 28.5939C21.316 28.5977 23.4797 28.5856 25.6446 28.5849C26.7177 28.5849 27.7908 28.5962 28.8639 28.5984C28.9954 28.5984 29.0546 28.6286 29.0447 28.7227C29.0349 28.8168 29.0359 28.914 29.0305 29.0329C21.6766 29.0736 14.3283 29.0224 6.95799 29.0081C6.95799 28.926 6.94922 28.8575 6.94922 28.7874C6.94922 28.7174 6.9536 28.6459 6.95799 28.5593Z" fill="white"/>
<path d="M14.7948 5.69337L14.0887 6.58956C14.0203 6.16354 13.9564 5.7916 13.9062 5.41745C13.9099 5.35085 13.9369 5.28742 13.9827 5.23756C14.2268 4.92411 14.4777 4.61619 14.7252 4.30495C14.7392 4.28252 14.7582 4.26343 14.7809 4.2491C14.8036 4.23477 14.8293 4.22557 14.8561 4.22217C14.883 4.21878 14.9103 4.22128 14.936 4.2295C14.9617 4.23772 14.9852 4.25143 15.0047 4.26963C15.3468 4.49037 15.6959 4.70338 16.0415 4.91859C16.1255 4.96281 16.1972 5.02607 16.2504 5.10295C16.3036 5.17984 16.3368 5.26806 16.3471 5.36006C16.3722 5.60287 16.4122 5.84458 16.4555 6.15029L15.6765 5.64812C15.6815 5.70367 15.6895 5.75893 15.7004 5.81367C15.8795 6.44056 16.0574 7.06635 16.2399 7.68992C16.2454 7.71308 16.2559 7.73487 16.2706 7.75388C16.2853 7.77289 16.304 7.7887 16.3255 7.80029C16.6517 7.91066 16.8661 8.15347 17.0965 8.38193C17.1741 8.44966 17.2738 8.48875 17.3783 8.49229C18.4116 8.5232 19.445 8.54417 20.4784 8.56845C21.0749 8.5828 21.6715 8.60045 22.2669 8.61591C22.3342 8.61591 22.4015 8.61591 22.4688 8.61591L22.4916 8.56514L21.5791 7.81574C21.9213 7.78153 22.2053 7.75283 22.4916 7.72745C22.5167 7.72889 22.5404 7.73954 22.5577 7.75725L23.4634 8.57066C23.5258 8.61909 23.5683 8.68755 23.5832 8.76365C23.598 8.83976 23.5843 8.9185 23.5444 8.98564C23.3619 9.35537 23.1828 9.72731 22.9957 10.0959C22.9815 10.1177 22.9625 10.1361 22.94 10.1499C22.9175 10.1636 22.8921 10.1723 22.8657 10.1754C22.6524 10.1842 22.4368 10.1754 22.1973 10.1754C22.3114 9.86416 22.414 9.57169 22.5269 9.25935C22.4391 9.25935 22.3832 9.24721 22.3285 9.24721C20.7419 9.25493 19.1553 9.26487 17.5699 9.26818C17.5022 9.26088 17.4339 9.27418 17.3744 9.30622C17.3149 9.33827 17.2672 9.38747 17.238 9.44697C17.0098 9.84209 16.5068 9.95577 16.0186 9.74386C15.2887 9.426 15.0343 8.6744 15.4244 7.99233C15.4514 7.94573 15.4614 7.8917 15.4529 7.83892C15.259 7.15905 15.0617 6.47993 14.8609 5.80153C14.8425 5.76353 14.8203 5.72732 14.7948 5.69337V5.69337Z" fill="#FFC700"/>
<path d="M29.0473 32.4962C29.2339 32.2973 29.473 32.1526 29.7381 32.0782C29.9382 32.0232 30.1483 32.0127 30.353 32.0474C30.5578 32.0821 30.752 32.1612 30.9216 32.2789C31.0911 32.3965 31.2317 32.5498 31.333 32.7275C31.4343 32.9052 31.4939 33.1029 31.5072 33.306C31.533 33.9089 31.5229 34.5162 31.5319 35.118C31.5319 35.2005 31.5038 35.2368 31.4196 35.2335C31.2713 35.2335 31.1231 35.2335 30.9703 35.239C30.8759 35.239 30.858 35.2005 30.858 35.1213C30.858 34.5833 30.8512 34.0442 30.858 33.5062C30.858 33.0287 30.5626 32.6888 30.129 32.6822C30.0295 32.6807 29.9307 32.6988 29.8386 32.7356C29.7464 32.7723 29.6628 32.8269 29.5926 32.896C29.5225 32.9651 29.4673 33.0473 29.4303 33.1378C29.3934 33.2283 29.3754 33.3252 29.3775 33.4226C29.3775 33.9804 29.3775 34.5382 29.3933 35.096C29.3933 35.2148 29.3607 35.2533 29.2405 35.2456C29.1114 35.2385 28.982 35.2385 28.853 35.2456C28.7575 35.2456 28.7159 35.2236 28.7171 35.1202C28.7171 34.5866 28.7171 34.053 28.7171 33.5183C28.7171 33.0529 28.452 32.7295 28.0341 32.6954C27.9301 32.6871 27.8254 32.7004 27.727 32.7346C27.6286 32.7688 27.5387 32.8231 27.4632 32.8937C27.3878 32.9644 27.3285 33.05 27.2892 33.1447C27.25 33.2395 27.2317 33.3413 27.2355 33.4435C27.2355 34.0013 27.2355 34.5591 27.2501 35.1169C27.2501 35.2203 27.2265 35.2599 27.1164 35.2544C26.9738 35.2467 26.83 35.2544 26.6862 35.2544C26.6065 35.2544 26.5739 35.2302 26.5739 35.1499C26.5739 34.5547 26.557 33.9595 26.5739 33.3654C26.5724 33.1019 26.6534 32.8443 26.8061 32.6273C26.9587 32.4103 27.1756 32.2444 27.4276 32.1519C27.9768 31.9263 28.4868 32.0342 28.9338 32.4203C28.9586 32.4423 28.9821 32.4654 29.008 32.4863C29.0207 32.4909 29.0339 32.4942 29.0473 32.4962Z" fill="#FFC700"/>
<path d="M26.0089 11.4205C25.7544 11.3586 25.4966 11.308 25.2455 11.2304C25.2003 11.2181 25.1585 11.1349 25.1471 11.0775C25.0612 10.6278 25.008 10.1781 24.8984 9.72835C24.6477 8.74593 24.2675 7.80079 23.7675 6.91754C23.253 5.99847 22.6187 5.15091 21.8812 4.3968C20.4551 2.94418 18.7894 1.85246 16.8284 1.23296C16.5717 1.152 16.3071 1.09466 16.0368 1.03732C15.9316 1.01484 15.8864 0.974361 15.8909 0.865301C15.8966 0.673042 15.8909 0.479658 15.8909 0.248047C18.6571 0.854058 20.9086 2.27183 22.7655 4.30911C24.593 6.31827 25.7454 8.65575 26.0699 11.3597L26.0089 11.4205Z" fill="white"/>
<path d="M35.2988 33.1659C35.2064 32.7669 34.8194 32.474 34.3905 32.4648C34.1791 32.4648 33.9734 32.5379 33.8039 32.6734C33.6344 32.8089 33.5102 32.9995 33.4498 33.2168C33.3894 33.4341 33.396 33.6665 33.4687 33.8794C33.5413 34.0924 33.6761 34.2745 33.853 34.3986C34.2561 34.6869 34.6947 34.6142 35.1902 34.1622C35.3257 34.3075 35.4654 34.4516 35.5966 34.6062C35.6095 34.6212 35.5751 34.7019 35.546 34.7342C35.3598 34.9379 35.1297 35.0892 34.876 35.1749C34.6223 35.2606 34.3528 35.278 34.0914 35.2255C33.83 35.173 33.5846 35.0522 33.377 34.8739C33.1694 34.6956 33.0059 34.4652 32.9009 34.203C32.796 33.9408 32.7529 33.6549 32.7753 33.3706C32.7978 33.0863 32.8851 32.8123 33.0297 32.5729C33.1743 32.3334 33.3716 32.1357 33.6042 31.9974C33.8369 31.8591 34.0977 31.7844 34.3636 31.7798C34.7053 31.7707 35.0406 31.8796 35.3201 32.0906C35.5996 32.3016 35.8085 32.6034 35.9158 32.9514C35.9878 33.1982 35.9749 33.4726 35.9964 33.7344C36.0029 33.8174 35.9631 33.8497 35.8793 33.8497C35.2121 33.8497 34.5442 33.8543 33.8756 33.8635C33.7681 33.8635 33.7251 33.8209 33.7176 33.7159C33.7176 33.6721 33.7047 33.6283 33.7014 33.5845C33.6756 33.2109 33.7068 33.1763 34.0486 33.174C34.4646 33.1751 34.8763 33.1694 35.2988 33.1659Z" fill="#FFC700"/>
<path d="M21.6004 35.2329L21.0045 35.2217C20.9031 35.2217 20.9183 35.1479 20.9171 35.0886C20.9078 34.536 20.9019 33.9833 20.8891 33.4307C20.8913 33.3174 20.8763 33.2043 20.8448 33.0951C20.7885 32.9283 20.6721 32.7861 20.5165 32.6942C20.3609 32.6023 20.1762 32.5666 19.9956 32.5935C19.815 32.6205 19.6503 32.7083 19.5311 32.8412C19.4119 32.9742 19.346 33.1435 19.3452 33.3188C19.3452 33.895 19.3604 34.4711 19.3685 35.0483C19.3685 35.2463 19.3685 35.2463 19.1563 35.2486C19.0467 35.2486 18.9371 35.2486 18.8287 35.2542C18.7202 35.2598 18.6876 35.2329 18.6864 35.1289C18.6771 34.3089 18.6631 33.49 18.6491 32.6677C18.6409 32.1778 18.6363 31.6867 18.6211 31.1967C18.6211 31.0691 18.6561 31.0255 18.7878 31.0356C18.9168 31.0434 19.0461 31.0434 19.175 31.0356C19.2718 31.0356 19.3067 31.0647 19.3067 31.1586C19.3067 31.4159 19.3137 31.6732 19.3196 31.9294C19.3196 31.9853 19.3301 32.0413 19.3382 32.1185C19.407 32.0916 19.4548 32.0748 19.5026 32.0547C19.7146 31.9586 19.9478 31.9136 20.1819 31.9235C20.4161 31.9334 20.6443 31.998 20.8466 32.1116C21.0488 32.2253 21.2192 32.3845 21.3428 32.5756C21.4665 32.7666 21.5397 32.9837 21.5561 33.2081C21.6004 33.8681 21.5887 34.5259 21.6004 35.2329Z" fill="#FFC700"/>
<path d="M7.96413 6.70312C8.17225 6.75598 8.36155 6.81324 8.55306 6.85178C8.66376 6.87491 8.68369 6.93217 8.68701 7.03348C8.749 9.62456 9.86044 11.7608 11.6018 13.613C12.5662 14.6349 13.7267 15.4541 15.0147 16.0224C15.0479 16.0367 15.0811 16.0543 15.1132 16.072C15.1248 16.08 15.1356 16.0893 15.1453 16.0995C15.0866 16.3539 15.028 16.6071 14.9638 16.8824C14.8221 16.8175 14.6925 16.7646 14.5675 16.7007C11.7545 15.2692 9.73424 13.1186 8.57077 10.1884C8.18418 9.19868 7.97258 8.14995 7.94531 7.08854C7.94531 6.99163 7.94531 6.89363 7.94531 6.79562C7.9493 6.76437 7.95559 6.73346 7.96413 6.70312V6.70312Z" fill="white"/>
<path d="M10.6758 34.1849C10.6817 33.9117 10.6864 33.6384 10.6946 33.3651C10.7048 33.0128 10.8584 32.6775 11.1238 32.4287C11.3892 32.1798 11.7461 32.0363 12.1207 32.0277C12.4954 32.0192 12.8592 32.1464 13.1371 32.3829C13.415 32.6194 13.5857 32.9473 13.6139 33.2988C13.6469 33.9006 13.641 34.5047 13.6551 35.1076C13.6551 35.1828 13.6351 35.2182 13.5469 35.2182C13.4022 35.2182 13.2564 35.2182 13.1117 35.2304C12.9941 35.2393 12.9576 35.1928 12.9564 35.0844C12.9564 34.529 12.9486 33.9733 12.9329 33.4171C12.9361 33.3191 12.9181 33.2215 12.8801 33.1301C12.8421 33.0388 12.7849 32.9556 12.7118 32.8856C12.6387 32.8156 12.5513 32.7603 12.4549 32.7229C12.3585 32.6856 12.255 32.6669 12.1507 32.6682C12.0463 32.6674 11.9429 32.6868 11.8467 32.7251C11.7506 32.7635 11.6639 32.82 11.5919 32.8911C11.5199 32.9622 11.4642 33.0465 11.4282 33.1387C11.3922 33.2309 11.3767 33.3291 11.3827 33.4271C11.3827 33.9825 11.3909 34.5382 11.4074 35.0943C11.4074 35.2216 11.3662 35.2614 11.2357 35.2536C11.1158 35.2459 10.9956 35.2459 10.8757 35.2536C10.7581 35.2625 10.7122 35.2271 10.7158 35.112C10.7275 34.8023 10.7311 34.4914 10.7381 34.1805L10.6758 34.1849Z" fill="#FFC700"/>
<path d="M6.96117 32.0551C7.14363 32.0551 7.31849 32.0639 7.49335 32.065C7.59652 32.065 7.58023 32.1391 7.58132 32.2044C7.59001 32.7452 7.59544 33.2871 7.60738 33.829C7.60738 33.9274 7.62128 34.0254 7.64866 34.1198C7.70192 34.2847 7.81125 34.4249 7.95696 34.515C8.10266 34.6051 8.27518 34.6393 8.44345 34.6115C8.61173 34.5836 8.7647 34.4955 8.87485 34.363C8.98499 34.2305 9.04507 34.0623 9.04427 33.8887C9.04427 33.3424 9.03124 32.796 9.02364 32.2497C9.02364 32.0285 9.02364 32.0285 9.23542 32.0285C9.32883 32.0285 9.42114 32.0352 9.51346 32.0285C9.62207 32.0186 9.65682 32.0706 9.65791 32.1745C9.66442 32.754 9.68397 33.3335 9.67963 33.913C9.67083 34.266 9.5292 34.602 9.284 34.8517C9.03881 35.1013 8.70879 35.2455 8.36215 35.2545C8.01551 35.2634 7.67874 35.1364 7.42144 34.8997C7.16414 34.663 7.00598 34.3347 6.97963 33.9827C6.95248 33.3711 6.95791 32.7584 6.94922 32.1458C6.94922 32.1281 6.95465 32.1104 6.96117 32.0551Z" fill="#FFC700"/>
<path d="M2.97931 34.8884C2.80697 35.1028 2.58621 35.2702 2.33643 35.3759C2.08666 35.4817 1.81553 35.5225 1.54689 35.4948C1.18479 35.4645 0.841905 35.3142 0.56948 35.0663C0.297055 34.8184 0.109728 34.4861 0.0354997 34.1192C-0.0387282 33.7524 0.00413058 33.3705 0.15767 33.0309C0.311209 32.6912 0.567181 32.4119 0.887322 32.2348C1.20543 32.0594 1.56927 31.9927 1.92646 32.0443C2.28365 32.0959 2.61577 32.2631 2.87499 32.5218C2.93893 32.5889 2.94902 32.6375 2.87499 32.7023C2.78728 32.7863 2.7045 32.8755 2.62709 32.9696C2.54297 33.075 2.48464 33.0796 2.3792 32.9801C2.23183 32.8422 2.04882 32.7514 1.8524 32.7187C1.65598 32.6861 1.4546 32.7129 1.2727 32.7961C1.0908 32.8792 0.936209 33.0151 0.8277 33.1871C0.719192 33.3592 0.661431 33.56 0.661431 33.7653C0.661431 33.9705 0.719192 34.1714 0.8277 34.3434C0.936209 34.5154 1.0908 34.6513 1.2727 34.7344C1.4546 34.8176 1.65598 34.8445 1.8524 34.8118C2.04882 34.7791 2.23183 34.6883 2.3792 34.5504C2.53175 34.4093 2.53287 34.4093 2.67645 34.5504C2.77179 34.6477 2.86602 34.7449 2.96024 34.8432C2.97034 34.8548 2.97146 34.8652 2.97931 34.8884Z" fill="#FFC700"/>
<path d="M17.6277 34.6652C17.2295 35.1756 16.461 35.3834 15.799 35.1745C15.464 35.0673 15.1726 34.8616 14.9661 34.5866C14.7596 34.3117 14.6484 33.9813 14.6484 33.6423C14.6484 33.3033 14.7596 32.973 14.9661 32.698C15.1726 32.423 15.464 32.2173 15.799 32.1101C16.4352 31.9012 17.2115 32.0983 17.5941 32.5817C17.4617 32.712 17.3293 32.8488 17.1868 32.9747C17.1689 32.9898 17.0847 32.9586 17.05 32.9284C16.9432 32.8301 16.8157 32.7551 16.676 32.7083C16.5363 32.6616 16.3877 32.6443 16.2404 32.6576C16.0931 32.6709 15.9505 32.7145 15.8224 32.7854C15.6942 32.8563 15.5835 32.9529 15.4977 33.0686C15.412 33.1843 15.3532 33.3164 15.3254 33.4558C15.2975 33.5953 15.3014 33.7389 15.3366 33.8768C15.3718 34.0147 15.4375 34.1437 15.5293 34.2551C15.6211 34.3664 15.7368 34.4574 15.8686 34.522C16.0546 34.6144 16.2657 34.6496 16.4732 34.6228C16.6808 34.596 16.8747 34.5086 17.0287 34.3723C17.1745 34.2485 17.1756 34.2474 17.3159 34.3723C17.4213 34.4692 17.5223 34.5661 17.6277 34.6652Z" fill="#FFC700"/>
<path d="M16.0702 1.79526C14.5748 1.45941 13.1239 1.51843 11.7289 2.13111C10.3043 2.7556 9.41088 3.81358 8.94705 5.21385C8.92182 5.21062 8.89697 5.20524 8.87279 5.19776L8.19531 4.92522C8.38953 4.51318 8.53805 4.08183 8.78025 3.70735C9.92841 1.94441 11.6364 1.0742 13.823 1.00553C14.5339 0.9671 15.2471 1.01835 15.9434 1.1579C16.1079 1.19438 16.1662 1.25876 16.1296 1.4122C16.1022 1.53237 16.0908 1.65792 16.0702 1.79526Z" fill="white"/>
<path d="M23.9398 14.8962C23.724 14.7027 23.5285 14.5234 23.327 14.3527C23.283 14.3208 23.2545 14.2744 23.2478 14.2235C23.2412 14.1726 23.2567 14.1214 23.2912 14.0809C23.6361 13.4864 23.8518 12.8368 23.9267 12.1677C24.0119 11.4581 23.9821 10.741 23.8385 10.0393C23.7026 9.29394 23.4589 8.56834 23.1136 7.88149C22.9574 7.57603 22.7738 7.28252 22.5938 6.96945L23.1899 6.70312C23.2388 6.76726 23.2924 6.82596 23.3342 6.89119C24.3094 8.42284 24.8591 10.0665 24.8269 11.8438C24.809 12.8221 24.6111 13.7787 24.0924 14.6571C24.0471 14.7277 24.0006 14.8027 23.9398 14.8962Z" fill="white"/>
<path d="M23.5741 31.972C23.5741 32.1825 23.5741 32.3727 23.5741 32.5629C23.5741 32.5899 23.5201 32.6338 23.489 32.6361C23.3531 32.6439 23.2151 32.6428 23.0741 32.6361C23.0004 32.6361 22.9703 32.671 22.9703 32.7486C22.9745 33.3242 22.9779 33.8993 22.9807 34.4741C22.9807 34.5653 23.0191 34.5867 23.0948 34.5867C23.2525 34.5867 23.406 34.5867 23.5824 34.5867C23.5824 34.7904 23.5886 34.9806 23.5824 35.1708C23.576 35.1899 23.5652 35.2068 23.551 35.22C23.5368 35.2332 23.5198 35.2423 23.5014 35.2462C23.2722 35.2541 23.0419 35.2609 22.8126 35.2462C22.6917 35.2391 22.5779 35.1821 22.4944 35.0869C22.4109 34.9917 22.3641 34.8655 22.3635 34.7341C22.3562 33.5455 22.3531 32.3569 22.3438 31.1683C22.3438 31.067 22.3676 31.031 22.4599 31.0344C22.5927 31.0344 22.7255 31.0344 22.8572 31.0344C22.9444 31.0344 22.961 31.0738 22.961 31.1548C22.961 31.3799 22.9672 31.6152 22.961 31.8448C22.961 31.9393 22.989 31.9686 23.0772 31.9652C23.2431 31.963 23.3946 31.9697 23.5741 31.972Z" fill="#FFC700"/>
<path d="M3.99321 35.4897C3.99321 35.1799 3.98023 34.8677 3.97698 34.5567C3.97698 34.2847 3.96725 34.0116 3.97698 33.7396C3.99153 33.2811 4.16798 32.8467 4.4693 32.5274C4.77062 32.2081 5.17337 32.0289 5.59299 32.0273C5.66871 32.0273 5.70116 32.0534 5.70116 32.1385C5.70116 32.2851 5.70116 32.4318 5.70981 32.5772C5.7163 32.6813 5.68277 32.7132 5.5865 32.7203C5.15383 32.7487 4.82933 32.9698 4.67358 33.4215C4.62965 33.559 4.60805 33.7039 4.60976 33.8496C4.60976 34.3533 4.60976 34.857 4.6249 35.3608C4.6249 35.4648 4.60435 35.5086 4.50375 35.5027C4.34042 35.492 4.18034 35.4932 3.99321 35.4897Z" fill="#FFC700"/>
<path d="M25.5644 35.2549H24.8524C24.8524 34.9236 24.8427 34.611 24.8415 34.2973C24.8415 33.5971 24.8415 32.8968 24.8281 32.1988C24.8281 32.0751 24.8573 32.0176 25.0055 32.0287C25.1398 32.0375 25.2746 32.0375 25.4089 32.0287C25.5146 32.0221 25.5523 32.0475 25.5523 32.1524C25.5523 32.8151 25.5608 33.4877 25.5669 34.156C25.5669 34.4608 25.5689 34.7664 25.573 35.0727C25.573 35.1246 25.5681 35.1798 25.5644 35.2549Z" fill="#FFC700"/>
<path d="M16.426 16.8828C16.7612 16.9236 17.072 16.9536 17.3794 17.0012C18.2744 17.1347 19.193 17.1073 20.0745 16.9206C20.1555 16.905 20.2386 16.8975 20.3218 16.8983C20.3457 16.8978 20.3694 16.9015 20.3915 16.9092C20.4136 16.9169 20.4336 16.9284 20.45 16.943C20.5841 17.1564 20.7078 17.3736 20.8557 17.622C20.2709 17.7064 19.7266 17.816 19.1742 17.8587C18.2693 17.9295 17.3841 17.7694 16.5023 17.6132C16.4733 17.6039 16.4476 17.5886 16.4274 17.5688C16.4072 17.5489 16.3933 17.5252 16.3867 17.4998C16.389 17.3038 16.4098 17.1059 16.426 16.8828Z" fill="white"/>
<path d="M11.668 16.4471L12.0995 15.6416C12.215 15.7325 12.3261 15.8346 12.4502 15.9153C13.0522 16.3103 13.6553 16.7007 14.2649 17.0855C14.3728 17.155 14.4203 17.2134 14.3901 17.3458C14.334 17.5937 14.2897 17.8439 14.2347 18.1244C13.3014 17.6745 12.4782 17.0743 11.668 16.4471Z" fill="white"/>
<path d="M7.05933 15.6418C6.3753 15.6418 5.69127 15.6418 5.00724 15.6418C4.86562 15.6397 4.72548 15.6261 4.5919 15.6014C4.55999 15.5934 4.5322 15.5815 4.51079 15.5667C4.48938 15.552 4.47497 15.5348 4.46875 15.5165C4.46875 15.4925 4.53704 15.4527 4.59078 15.4416C4.70351 15.4157 4.82396 15.4003 4.94679 15.3959C6.36485 15.3928 7.78292 15.3928 9.20098 15.3959C9.33095 15.3979 9.4587 15.414 9.57602 15.4433C9.60679 15.4481 9.63378 15.458 9.65298 15.4714C9.67217 15.4849 9.68254 15.5012 9.68254 15.518C9.68254 15.5348 9.67217 15.5511 9.65298 15.5646C9.63378 15.578 9.60679 15.5879 9.57602 15.5926C9.45179 15.6214 9.31781 15.637 9.18195 15.6383C8.47777 15.6418 7.76911 15.6418 7.05933 15.6418Z" fill="white"/>
<path d="M5.97058 25.3261C6.48736 25.3261 7.00414 25.3261 7.51984 25.3261C7.61514 25.3186 7.71038 25.3428 7.79985 25.3972C7.8658 25.4469 7.95121 25.5944 7.94472 25.6832C7.93376 25.75 7.91432 25.8123 7.88767 25.8658C7.86103 25.9194 7.82778 25.9631 7.79012 25.9941C7.70724 26.0519 7.61724 26.0768 7.52741 26.0669C6.48952 26.0669 5.45092 26.0669 4.41159 26.0669C4.30987 26.0725 4.20857 26.0428 4.11428 25.9799C4.07862 25.9507 4.04739 25.9087 4.02288 25.857C3.99837 25.8054 3.98121 25.7454 3.97266 25.6814C3.97266 25.5962 4.04617 25.4558 4.1078 25.4114C4.20215 25.3513 4.30288 25.3229 4.40403 25.3279C4.92621 25.3208 5.4484 25.3261 5.97058 25.3261Z" fill="white"/>
<path d="M21.6105 25.5735C22.1335 25.5735 22.6554 25.5735 23.1773 25.5735C23.2782 25.5735 23.3781 25.5957 23.4712 25.6387C23.5015 25.6559 23.5278 25.6808 23.5477 25.7113C23.5676 25.7417 23.5806 25.777 23.5857 25.8141C23.5786 25.8534 23.5638 25.8906 23.5424 25.9232C23.5209 25.9557 23.4933 25.9827 23.4614 26.0024C23.3749 26.047 23.2804 26.0697 23.1848 26.0688C22.1339 26.0688 21.0833 26.0688 20.033 26.0688C19.9254 26.0684 19.8192 26.0421 19.7218 25.9918C19.69 25.9792 19.6626 25.9562 19.6431 25.9259C19.6237 25.8956 19.6133 25.8594 19.6133 25.8224C19.6133 25.7853 19.6237 25.7491 19.6431 25.7188C19.6626 25.6885 19.69 25.6655 19.7218 25.6529C19.8182 25.6019 19.9238 25.5752 20.0309 25.5747C20.5538 25.57 21.0822 25.5735 21.6105 25.5735Z" fill="white"/>
<path d="M6.71695 26.5675C7.15471 26.5675 7.59143 26.5675 8.02919 26.5675C8.12184 26.5616 8.21459 26.5774 8.30003 26.6137C8.3365 26.6332 8.36809 26.6607 8.39244 26.6941C8.4168 26.7275 8.4333 26.7659 8.44071 26.8066C8.43177 26.8494 8.41436 26.89 8.38948 26.926C8.3646 26.962 8.33276 26.9927 8.29584 27.0163C8.22296 27.0521 8.14162 27.0674 8.06068 27.0603C7.15646 27.0603 6.25259 27.0603 5.34907 27.0603C5.12022 27.0603 4.9638 26.9554 4.96485 26.8108C4.9659 26.6661 5.12127 26.5675 5.35222 26.5654C5.80783 26.5654 6.26239 26.5654 6.71695 26.5654V26.5675Z" fill="white"/>
<path d="M22.4479 26.5659C22.929 26.5659 23.409 26.5659 23.8901 26.5659C24.1745 26.5659 24.3318 26.6598 24.3296 26.8192C24.3273 26.9786 24.1722 27.062 23.8979 27.062H21.0147C20.7539 27.062 20.6077 26.9712 20.6055 26.8171C20.6032 26.663 20.7471 26.567 21.0068 26.5659C21.4868 26.5648 21.9679 26.5659 22.4479 26.5659Z" fill="white"/>
<path d="M8.30511 16.8825H6.88248C6.60942 16.8825 6.45771 16.7484 6.45322 16.5164C6.44872 16.2845 6.60492 16.1377 6.89147 16.1377H9.75921C9.79629 16.1377 9.8345 16.1377 9.87158 16.1377C10.0581 16.1629 10.1795 16.3144 10.1772 16.5133C10.1693 16.6198 10.1316 16.7175 10.0724 16.7849C10.0132 16.8524 9.93731 16.8841 9.86147 16.8731C9.34455 16.8825 8.82652 16.8731 8.30848 16.8731L8.30511 16.8825Z" fill="white"/>
<path d="M20.0701 3.97179C19.3184 3.33657 18.5367 2.7889 17.625 2.41983L17.7839 1.7373C18.1557 1.94549 18.5137 2.12056 18.8452 2.33703C19.3253 2.64931 19.7858 2.99472 20.2589 3.3212C20.3648 3.39454 20.3878 3.46314 20.3095 3.57552C20.2313 3.68789 20.1553 3.83102 20.0701 3.97179Z" fill="white"/>
<path d="M6.07712 2.47889H4.83941C4.78315 2.47889 4.71114 2.49396 4.67401 2.46498C4.59187 2.40007 4.48385 2.31892 4.46922 2.23315C4.46022 2.17171 4.58174 2.07434 4.65938 2.01639C4.71606 1.98988 4.77892 1.98063 4.84054 1.98973C5.6653 1.98973 6.49007 1.98973 7.31596 1.98973C7.36004 1.98757 7.40421 1.99068 7.4476 1.999C7.57475 2.02914 7.69964 2.07782 7.69627 2.23894C7.69289 2.40007 7.568 2.47077 7.42735 2.47773C7.24057 2.48932 7.05266 2.47773 6.86475 2.47773L6.07712 2.47889Z" fill="white"/>
<path d="M5.4721 2.97958C5.851 2.97958 6.22873 2.97958 6.60647 2.97958C6.82298 2.97958 6.95197 3.07617 6.95197 3.22781C6.95197 3.37945 6.8368 3.46981 6.6226 3.47085C5.84792 3.47431 5.07248 3.47604 4.29628 3.47604C4.08553 3.47604 3.97151 3.37945 3.97266 3.22885C3.97382 3.07825 4.09935 2.98477 4.29973 2.98373C4.69129 2.97854 5.0817 2.97958 5.4721 2.97958Z" fill="white"/>
<path d="M22.5917 5.52619C22.4231 5.59165 22.2745 5.65516 22.1204 5.70694C22.0991 5.71159 22.0769 5.7118 22.0555 5.70755C22.0342 5.70331 22.0142 5.69474 21.9973 5.68252C21.5344 5.23111 21.0749 4.77841 20.6188 4.3244C20.6127 4.31563 20.6082 4.30607 20.6055 4.29606C20.6055 4.28922 20.6055 4.28238 20.6055 4.27848C20.8738 3.89351 20.9448 3.87788 21.2875 4.19836C21.6923 4.57843 22.0771 4.97317 22.4686 5.36399C22.5143 5.41517 22.5555 5.4694 22.5917 5.52619V5.52619Z" fill="white"/>
<path d="M22.3029 16.8834L21.8477 16.0385L22.643 15.1455C22.7858 15.3614 22.9402 15.5856 23.0821 15.8226C23.0897 15.8553 23.0911 15.89 23.0861 15.9235C23.0811 15.9571 23.0699 15.9885 23.0536 16.0151C22.8206 16.3002 22.5716 16.5748 22.3029 16.8834Z" fill="white"/>
<path d="M25.5685 31.2424C25.5761 31.275 25.5739 31.3083 25.5622 31.3404C25.5504 31.3725 25.5292 31.4026 25.4999 31.4292C25.4706 31.4557 25.4337 31.4781 25.3914 31.495C25.3491 31.5119 25.3022 31.523 25.2535 31.5277C25.158 31.5379 25.0604 31.5224 24.9818 31.4847C24.9032 31.447 24.8499 31.3901 24.8334 31.3262C24.8252 31.2938 24.8266 31.2607 24.8375 31.2286C24.8484 31.1966 24.8685 31.1664 24.8969 31.1396C24.9252 31.1128 24.9611 31.09 25.0026 31.0725C25.044 31.0551 25.0902 31.0432 25.1385 31.0377C25.1867 31.0322 25.2362 31.0331 25.2839 31.0404C25.3316 31.0478 25.3767 31.0613 25.4167 31.0803C25.4566 31.0993 25.4906 31.1234 25.5166 31.1512C25.5427 31.179 25.5603 31.21 25.5685 31.2424Z" fill="#FFC700"/>
<path d="M28.6726 24.8272C28.721 24.826 28.7692 24.8371 28.8143 24.86C28.8594 24.8829 28.9006 24.9171 28.9355 24.9607C28.9704 25.0043 28.9983 25.0564 29.0176 25.114C29.037 25.1716 29.0473 25.2336 29.0482 25.2964C29.0525 25.3626 29.0463 25.4293 29.0298 25.4922C29.0134 25.5552 28.9871 25.6131 28.9526 25.6622C28.9181 25.7114 28.8762 25.7508 28.8294 25.778C28.7827 25.8052 28.7321 25.8196 28.6808 25.8202C28.6296 25.8209 28.5788 25.8078 28.5316 25.7819C28.4844 25.7559 28.4419 25.7176 28.4066 25.6693C28.3714 25.6211 28.3442 25.5639 28.3268 25.5014C28.3094 25.4389 28.3021 25.3724 28.3055 25.306C28.306 25.1797 28.3448 25.0588 28.4135 24.9692C28.4821 24.8797 28.5752 24.8287 28.6726 24.8272V24.8272Z" fill="#F6F6F6"/>
<path d="M8.93758 24.9446C8.93907 24.8458 8.96649 24.7519 9.01387 24.6834C9.06125 24.6149 9.12472 24.5774 9.19041 24.5792C9.2558 24.5835 9.31758 24.6256 9.36293 24.6966C9.40829 24.7676 9.43375 24.8621 9.43405 24.9605C9.43166 25.0593 9.40361 25.1526 9.35593 25.2206C9.30826 25.2885 9.24477 25.3256 9.17911 25.3239C9.14665 25.323 9.11462 25.3126 9.08488 25.293C9.05513 25.2735 9.02825 25.2452 9.00579 25.21C8.98334 25.1747 8.96575 25.1331 8.95404 25.0876C8.94233 25.042 8.93674 24.9934 8.93758 24.9446Z" fill="white"/>
<path d="M10.3129 26.8146C10.3863 26.8167 10.4575 26.8405 10.5174 26.883C10.5774 26.9255 10.6234 26.9847 10.6497 27.0533C10.6761 27.1219 10.6816 27.1967 10.6655 27.2684C10.6494 27.3401 10.6125 27.4054 10.5593 27.4562C10.5062 27.5069 10.4393 27.5408 10.3669 27.5536C10.2946 27.5664 10.2201 27.5575 10.1528 27.528C10.0855 27.4986 10.0284 27.4499 9.9887 27.388C9.94902 27.3262 9.9285 27.254 9.92974 27.1806C9.93057 27.1313 9.94118 27.0827 9.96094 27.0375C9.9807 26.9924 10.0092 26.9516 10.0449 26.9176C10.0805 26.8835 10.1226 26.8569 10.1686 26.8392C10.2146 26.8215 10.2636 26.8132 10.3129 26.8146Z" fill="white"/>
<path d="M26.9673 26.8165C27.0153 26.8185 27.0624 26.8304 27.1058 26.8514C27.1492 26.8724 27.188 26.9022 27.22 26.9388C27.252 26.9755 27.2765 27.0184 27.292 27.065C27.3075 27.1115 27.3137 27.1608 27.3103 27.2099C27.3076 27.2591 27.2952 27.3072 27.2741 27.3515C27.2529 27.3958 27.2234 27.4353 27.1872 27.4677C27.151 27.5001 27.1088 27.5249 27.0631 27.5404C27.0175 27.5559 26.9693 27.562 26.9213 27.5582C26.8724 27.5571 26.8242 27.5459 26.7797 27.5252C26.7351 27.5045 26.6951 27.4748 26.662 27.4379C26.6289 27.401 26.6034 27.3575 26.5871 27.3103C26.5708 27.263 26.564 27.2128 26.5671 27.1628C26.5702 27.1127 26.5832 27.0638 26.6052 27.0191C26.6272 26.9743 26.6578 26.9345 26.6952 26.9022C26.7326 26.8698 26.776 26.8456 26.8227 26.8308C26.8695 26.8161 26.9187 26.8112 26.9673 26.8165V26.8165Z" fill="#F6F6F6"/>
</svg>
