<svg width="32" height="37" viewBox="0 0 32 37" fill="none" xmlns="http://www.w3.org/2000/svg">
<path d="M16 31.0374C24.8366 31.0374 32 24.183 32 15.5789C32 6.97493 24.8366 0 16 0C7.16344 0 0 6.97493 0 15.5789C0 24.183 7.16344 31.0374 16 31.0374Z" fill="#FF0000"/>
<path d="M18 30.9189L17 31.0079L16 31.0374L15 31.0079L14 30.9189V37H18L18 30.9189Z" fill="#FF0000"/>
<path d="M16 22.3942H9V17.8502H16M26.5 17.8502V15.5783L25.3334 9.89849H6.66666L5.5 15.5783V17.8502H6.66666V24.666H18.3333V17.8502H23V24.666H25.3334V17.8502M25.3334 6.4906H6.66666V8.76252H25.3334V6.4906Z" fill="white"/>
</svg>
